<svg xmlns="http://www.w3.org/2000/svg" viewBox="0 0 576.5 468.79"><title>Email Icon</title><description>Email Icon</description><path d="M8,393.52c-.41.81-1.43,1.23-3.06,1.23H3.06Q0,392.9,0,390.46V146.27A4.38,4.38,0,0,1,2.45,142a9.94,9.94,0,0,1,4.9,0l162.79,93a3.92,3.92,0,0,1,2.45,3.67q0,3.06-1.84,3.67Zm547.13,67.32a5.64,5.64,0,0,1,1.22,4.9,5.54,5.54,0,0,1-4.9,3.06H19a17.5,17.5,0,0,1-9.18-3.06,3.92,3.92,0,0,1-2.45-3.67,4.12,4.12,0,0,1,1.84-3.67L216.65,265.61a4.09,4.09,0,0,1,5.51-.61l55.08,31.21q11.63,6.73,23.87,0l62.42-36.72q3.67-2.45,5.51.61Zm19-322.52a4.38,4.38,0,0,1,2.45,4.28V400.86a4.34,4.34,0,0,1-3.06,4.29,2.49,2.49,0,0,1-1.84.61,5.29,5.29,0,0,1-3.67-1.84L413.1,236.84q-1.83-1.84-1.22-3.67a4.11,4.11,0,0,1,1.84-3.67l155.45-91.19Q571,136.48,574.06,138.31ZM556.92,0A19.06,19.06,0,0,1,571,5.51,18.31,18.31,0,0,1,576.5,19V77.72q0,4.28-4.28,4.28a14.44,14.44,0,0,0-6.73,3.06L291.31,246a5.19,5.19,0,0,1-4.9,0L3.67,85.07Q0,82.62,0,80.17V19A18.31,18.31,0,0,1,5.51,5.51,18.31,18.31,0,0,1,19,0H556.92Z"/></svg>