<svg xmlns="http://www.w3.org/2000/svg" viewBox="0 0 123.03 30"><title>logomark</title><description>Go to Homepage</description><path d="M9.34,15.56H9.9a18.26,18.26,0,0,1,7.32,1.91,64.81,64.81,0,0,0,22.4,4.46h1.78a49,49,0,0,0,18.07-3.49,16.63,16.63,0,0,1,2.37-1H62q.68.22.68.78v.15q0,.65-1.87,1.36a36.64,36.64,0,0,1-7.34,2.46,54,54,0,0,1-13,1.54,69.48,69.48,0,0,1-26.92-5.82,14.48,14.48,0,0,0-3.93-.6H9.6q-4.73,0-7.19,3a4.28,4.28,0,0,0-.7,2.2,5.9,5.9,0,0,0,2.23,4.64A9.76,9.76,0,0,0,6,28.2,1.23,1.23,0,0,1,6.3,29a.94.94,0,0,1-.93.73A7.53,7.53,0,0,1,.91,26.13,8.6,8.6,0,0,1,0,22.4q0-3.59,4.31-5.75A12.31,12.31,0,0,1,9.34,15.56Z" style="fill:#537c8e"/><path d="M69.16,0q.7,0,1.1,1.25h0L70.14,1a20.55,20.55,0,0,1-1.5,5.93.12.12,0,0,0,0,.06s.07,0,.2,0q1.66,0,8.55-2h.37q.92.08.92.83t-3.2,1.43a33.42,33.42,0,0,1-6.81,1.49q-.92,0-1.33,1.57a60.33,60.33,0,0,1-3.4,6.6A6,6,0,0,0,62.7,19v.18l.11.6a12.24,12.24,0,0,0,2.49,3.89,4.14,4.14,0,0,0,2.54.93H68a6.35,6.35,0,0,0,4-1.48,8.13,8.13,0,0,0,2.75-2.89,13.08,13.08,0,0,1,1.4-2.43,1,1,0,0,1,.51-.18h.08a.86.86,0,0,1,.8.88,18.15,18.15,0,0,1-2.31,4.08,12.58,12.58,0,0,1-2.75,2.32,8.5,8.5,0,0,1-4,1.21h-.82a5.26,5.26,0,0,1-4.64-2.66,10.07,10.07,0,0,1-2.29-5.07,2.11,2.11,0,0,1-.06-.6h-.14l.14.29v-1.3a.78.78,0,0,1,0-.22.41.41,0,0,1,0-.15q.05-1.12-.09-1.12l.14.29a20.36,20.36,0,0,1,1.64-5.79,1.3,1.3,0,0,0,0-.36v-.1c0,.07-.07.09-.22.06q-.9.05-1.18.1-.59-.05-1-.05H58.57q-1.15-.27-1.15-.73v-.1q0-.31.82-.68L59,8l2.9-.15h.66q.65,0,1.4-1.87a15.56,15.56,0,0,0,1.24-2.18,2.2,2.2,0,0,0,.6-.88q2-2.87,3-2.87ZM62.54,15.88l-.14-.29v.55q0-.08-.15-.08A9.15,9.15,0,0,0,63.63,14q1-1.89,2.26-4.7V9.14c0-.06,0-.09,0-.09h-.24q-1.27.09-1.27.46-1.94,4.58-1.94,5.7Q62.4,15.88,62.54,15.88Zm2.71-8.44h0s0-.06.14-.06q1.2,0,1.39-.51a43.09,43.09,0,0,0,1.49-4.63s0,.06,0,.06h.1A16.34,16.34,0,0,0,65.25,7.44Z" style="fill:#537c8e"/><path d="M76.52,12.66q2.65.32,2.65,2.51a6.76,6.76,0,0,1-1.68,3.72v-.18q1,1.08.84,1.08v-.24l.5.24s1.13-.45,3.28-1.35a30.1,30.1,0,0,1,4.21-1.06.92.92,0,0,1,.71,1,1.64,1.64,0,0,1-1.55.84,16.92,16.92,0,0,0-5.58,2.15l.75,2.4.13.7h.08l-.1-.22-.05.1,0,0q-.09.76.05.46h0Q80,27.72,78.8,28.46a5.39,5.39,0,0,1-3,1.3l-.5.24v-.05q.32-.15-.14-.09-.85-.11-.65,0v-.06a2.49,2.49,0,0,1-1.81-2.27q0-2.73,4.14-6.31c.16-.14.24-.25.24-.32v-.05a10.09,10.09,0,0,0-1.45-1.62,7.13,7.13,0,0,1-1.81-3.15c0-.26,0-.39.05-.39q0,.34-.05.24a4.09,4.09,0,0,1,.73-2.2A2.54,2.54,0,0,1,76.52,12.66Zm-2,14.74v.38q.1.57.6.57a4.6,4.6,0,0,0,3.12-1.67,4.23,4.23,0,0,0,.64-2.47q-.28-1.8-.68-1.8a10,10,0,0,0-3,3A3.23,3.23,0,0,0,74.48,27.4Zm1.07-11.79v.11a3.24,3.24,0,0,0,1,1.94h-.22a5.15,5.15,0,0,0,1.17-2.59q0-.54-.93-.7Q75.88,14.36,75.55,15.61Z" style="fill:#537c8e"/><path d="M121,10.36q1.35,0,1.95,2.5a5.27,5.27,0,0,1,.05.73q0,2.54-3.16,4.55a12.23,12.23,0,0,1-3,1.21,21.18,21.18,0,0,1-3.15.56V20q.33-.19-.61-.09v.1l.29-.14h-1.15q.27,0,.27.24l-.5-.24h-.18q.27,0,.27.24l-.5-.24h0q.27,0,.27.24l-.5-.24h-1.62v.14L110,20l.22.1v.05l-.47-.24a20.94,20.94,0,0,1-2.38-.15v.05q-2.52-.36-7.94-1.33c.2,0,.29,0,.29.1l-1.38-.2v0l-1-.14q.59,0,.59.11l-.6-.11h-.43c-.25,0-.37,0-.37-.05q.59,0,.59.09l-.92-.1v.2l-.47-.24-2.26-.05v.14l.29-.14h-1.2a10.38,10.38,0,0,0-4.07.59,8.69,8.69,0,0,1-2.32.59q-.71-.28-.71-.83v-.15q0-.76,3.31-1.53a26.44,26.44,0,0,1,3.54-.45v-.12l-.29.14h1q-.27,0-.27-.24l.5.24h0q-.27,0-.27-.24l.42.2.1-.05.1.05.1-.05.1.05.1-.05.09.05h.54v.05c-.39,0-.59,0-.59-.1l.7.1h.28q.55,0,1.95.06v0c-.39,0-.59,0-.59-.08q2,.18,1.73.08v0a6.19,6.19,0,0,0,1.22.28v-.05q4.08.61,6.53,1.11v-.05l.82.15v-.06a12.42,12.42,0,0,0,2.47.28s-.2.05-.59.05V18a12.85,12.85,0,0,0,1.58.19V18l.5.24h2.34l.7-.1V18l-.29.14h.46l.7-.1v.05a13.74,13.74,0,0,0,3.36-.84q3.29-1.56,3.29-3.73v-.15a4.84,4.84,0,0,0-.76-2.1v-.19Q120.55,10.36,121,10.36Z" style="fill:#537c8e"/></svg>