<svg xmlns="http://www.w3.org/2000/svg" viewBox="0 0 375.01 52.77"><title>logo</title><path d="M12.88,32.86h.77a25.18,25.18,0,0,1,10.09,2.64q16.61,6.15,30.9,6.15h2.46A67.51,67.51,0,0,0,82,36.83a23,23,0,0,1,3.27-1.44h.21q.93.3.93,1.07v.21q0,.9-2.58,1.88a50.52,50.52,0,0,1-10.12,3.39,74.52,74.52,0,0,1-17.89,2.13q-17.95,0-37.12-8a20,20,0,0,0-5.41-.83h-.07q-6.52,0-9.91,4.11a5.91,5.91,0,0,0-1,3,8.13,8.13,0,0,0,3.08,6.4,13.49,13.49,0,0,0,2.88,1.53,1.7,1.7,0,0,1,.37,1.07,1.3,1.3,0,0,1-1.28,1,10.38,10.38,0,0,1-6.15-4.94A11.88,11.88,0,0,1,0,42.3q0-5,5.94-7.93A17,17,0,0,1,12.88,32.86Z" style="fill:#537c8e"/><path d="M95.4,11.39q1,0,1.51,1.72h0l-.19-.4q0,2.44-2.07,8.17a.17.17,0,0,0,0,.09s.09,0,.28,0q2.29,0,11.79-2.81h.51q1.27.11,1.27,1.14t-4.41,2q-7.22,2.06-9.39,2.06-1.27,0-1.83,2.16a83.26,83.26,0,0,1-4.69,9.11q-1.69,2.34-1.69,3v.25l.16.83A16.89,16.89,0,0,0,90.07,44a5.71,5.71,0,0,0,3.5,1.28h.21a8.76,8.76,0,0,0,5.45-2,11.23,11.23,0,0,0,3.8-4A18,18,0,0,1,105,35.9a1.34,1.34,0,0,1,.7-.25h.11a1.18,1.18,0,0,1,1.11,1.21,25,25,0,0,1-3.18,5.63,17.35,17.35,0,0,1-3.8,3.2,11.72,11.72,0,0,1-5.55,1.67H93.22a7.26,7.26,0,0,1-6.4-3.67,13.89,13.89,0,0,1-3.16-7,2.94,2.94,0,0,1-.09-.83h-.19l.19.4V34.47a1.1,1.1,0,0,1,0-.3.59.59,0,0,1,0-.21q.07-1.55-.12-1.55l.19.4q0-2.11,2.27-8a1.79,1.79,0,0,0,.05-.49v-.14q0,.14-.3.09-1.25.07-1.63.14-.81-.07-1.42-.07H80.79q-1.58-.37-1.58-1v-.14q0-.42,1.13-.93l1,.07,4-.21h.91q.9,0,1.93-2.58a21.47,21.47,0,0,0,1.71-3,3,3,0,0,0,.83-1.21q2.76-4,4.18-4ZM86.26,33.3l-.19-.4v.76q0-.11-.21-.11a12.66,12.66,0,0,0,1.92-2.87q1.41-2.6,3.11-6.49V24q0-.12-.05-.12h-.33q-1.76.12-1.76.63-2.67,6.31-2.67,7.86Q86.06,33.3,86.26,33.3ZM90,21.66v0q0-.09.19-.09,1.65,0,1.92-.7a59.38,59.38,0,0,0,2.06-6.38q0,.09,0,.09h.14Q90.79,18.92,90,21.66Z" style="fill:#537c8e"/><path d="M114.43,30.91a1.09,1.09,0,0,1,1,1.16,27.61,27.61,0,0,1-1.88,3q-2.34,5.34-2.34,8,.18,3,1.81,3.78a1,1,0,0,0,.49.16h.28q1.76,0,4.62-2.29a39.37,39.37,0,0,0,5-6.63q1.07-2.41,2.2-2.41,1.09.3,1.09,1.14V37a38.69,38.69,0,0,1-3.59,5.8,18.41,18.41,0,0,1-5.55,5.4,10.52,10.52,0,0,1-3.78,1.05h-.11q-2.67,0-4.39-3.34a6.65,6.65,0,0,1-.4-2.65,17.22,17.22,0,0,1,1.72-7.12l.46-1.46v-.35a.26.26,0,0,0,.3.3h-.14a9.79,9.79,0,0,0-3,.95A8.09,8.09,0,0,0,106,37.11a1.65,1.65,0,0,1-1.62-1.23l.65-1.05a6.27,6.27,0,0,1,2-1.09,57.58,57.58,0,0,0,6.79-2.83Z" style="fill:#537c8e"/><path d="M126.3,35.37h.12q1.11.23,1.11,1.14V37a8.9,8.9,0,0,1-1.71,3.45A7.52,7.52,0,0,0,124.72,44q0,.76,1.18.76,3.23,0,9.05-5.24a2.3,2.3,0,0,1,1.09-.93q1.34-1.27,2.88-3h.72q1,.14,1,1.07v.14q0,.58-1.72,2.32a10.41,10.41,0,0,1-2.3,2.11q-6.47,5.92-10.9,5.92-3.39,0-3.39-3.18a13.4,13.4,0,0,1,.95-4q2.14-4.41,2.21-4.41T126.3,35.37Zm4.66-8.3q.9,0,1.07,1.25a2.15,2.15,0,0,1-1.63,2,2.79,2.79,0,0,1-1.14.26q-1.55-.32-1.55-1.49,0-1.41,2.51-2A2.77,2.77,0,0,1,131,27.07Z" style="fill:#537c8e"/><path d="M139.15,28.85q3.66.44,3.66,3.46,0,2.06-2.32,5.13V37.2q1.34,1.49,1.16,1.49v-.33l.69.33s1.55-.62,4.52-1.86a41.43,41.43,0,0,1,5.8-1.46,1.27,1.27,0,0,1,1,1.35,2.27,2.27,0,0,1-2.14,1.16,23.36,23.36,0,0,0-7.7,3l1,3.3.18,1h.11l-.14-.3-.07.14,0,.05q-.12,1.05.07.63h0q-1,4-2.67,5-1,1.2-4.18,1.79l-.69.33V52.7q.44-.21-.19-.12-1.18-.16-.9,0v-.09q-2.5-1.09-2.5-3.13,0-3.76,5.71-8.7.33-.3.33-.44v-.07a13.91,13.91,0,0,0-2-2.23,9.82,9.82,0,0,1-2.5-4.34q0-.54.07-.54,0,.47-.07.33a5.64,5.64,0,0,1,1-3A3.5,3.5,0,0,1,139.15,28.85Zm-2.81,20.34v.53q.14.79.83.79,2,0,4.31-2.3a5.83,5.83,0,0,0,.88-3.41q-.39-2.48-.93-2.48a13.82,13.82,0,0,0-4.11,4.11A4.45,4.45,0,0,0,136.34,49.19Zm1.48-16.26v.16a4.47,4.47,0,0,0,1.32,2.67l0,0h-.26a7.09,7.09,0,0,0,1.62-3.57q0-.74-1.28-1Q138.27,31.21,137.81,32.93Z" style="fill:#537c8e"/><path d="M166.69,10.94h.16q1.55.18,1.55,1.49,0,3.5-5.34,12.6a79.09,79.09,0,0,1-5.73,7.79q-3.9,4.73-3.9,5.34a17.73,17.73,0,0,0-.56,3.71q.05.21-.16.21h0a12.47,12.47,0,0,0,1.78-2.9Q156.25,37,158.12,37q2.43,0,4.06,4.36,1.11,2.51,2.23,3a1.86,1.86,0,0,0,.81.18h.42q1.65,0,3.74-2.09a17.07,17.07,0,0,0,2.3-4.27q.65-2.71,1.78-2.71t1.13,1.13a19.77,19.77,0,0,1-3.46,7.31,7.52,7.52,0,0,1-5.91,2.78q-3.74,0-5.61-5.19-1.18-2.2-1.55-2.2a.48.48,0,0,0-.16-.07h-.07q-1.67,0-3.87,6l-.65,3.55a2.79,2.79,0,0,1-1,.56q-1.39,0-1.56-2.57a25.23,25.23,0,0,1-.28-2.57q0-6.52,1.79-10.05,5.87-14,8.77-17.72a32,32,0,0,1,3.5-4.48A3.46,3.46,0,0,1,166.69,10.94ZM156.16,31.38a.27.27,0,0,0-.3-.26q.35,0,2.81-3.69a47.8,47.8,0,0,0,5.5-9.14,26.85,26.85,0,0,0,1.72-4.57v-.07s0,.07-.05.07a21.32,21.32,0,0,0-2.37,3.11q-3.94,5.77-3.94,6.54-2.51,5.29-3.37,7.77Z" style="fill:#537c8e"/><path d="M180,30.43l.95,0a3,3,0,0,1,2.9,1.83,36.91,36.91,0,0,1,.93,4,4.68,4.68,0,0,0,4.64,3.08q3.18,0,7-3.69a5.27,5.27,0,0,1,1.09-.18q.83.39.83,1,0,.9-1.71,2.11a14,14,0,0,1-5.84,2.9q-.77.07-1.2.07h-.28a7.07,7.07,0,0,1-6.8-4.27l-.14-.09a23,23,0,0,1-1.12,2.13q-2.65,3.57-5.78,3.57h-.07q-2.39,0-3.64-2.67a4.43,4.43,0,0,1-.25-1.35,9.62,9.62,0,0,1,3-6.17A7.86,7.86,0,0,1,180,30.43Zm-6.17,8.09a2.07,2.07,0,0,0,1.53,2.23h.35q2.5,0,5.08-5.36a8.18,8.18,0,0,0,.74-2.43v-.42a3.2,3.2,0,0,1-1.09,0q-3.69-.07-5.78,3.67A4.05,4.05,0,0,0,173.79,38.52Z" style="fill:#537c8e"/><path d="M197.26,28.85q3.66.44,3.66,3.46,0,2.06-2.32,5.13V37.2q1.34,1.49,1.16,1.49v-.33l.69.33s1.55-.62,4.52-1.86a41.43,41.43,0,0,1,5.8-1.46,1.27,1.27,0,0,1,1,1.35,2.27,2.27,0,0,1-2.14,1.16,23.36,23.36,0,0,0-7.7,3l1,3.3.18,1h.11l-.14-.3L203,45l0,.05q-.12,1.05.07.63h0q-1,4-2.67,5-1,1.2-4.18,1.79l-.69.33V52.7q.44-.21-.19-.12-1.18-.16-.9,0v-.09Q192,51.44,192,49.4q0-3.76,5.71-8.7.33-.3.33-.44v-.07A13.91,13.91,0,0,0,196,38a9.82,9.82,0,0,1-2.5-4.34q0-.54.07-.54,0,.47-.07.33a5.64,5.64,0,0,1,1-3A3.5,3.5,0,0,1,197.26,28.85Zm-2.81,20.34v.53q.14.79.83.79,2,0,4.31-2.3a5.83,5.83,0,0,0,.88-3.41q-.39-2.48-.93-2.48a13.82,13.82,0,0,0-4.11,4.11A4.45,4.45,0,0,0,194.45,49.19Zm1.48-16.26v.16a4.47,4.47,0,0,0,1.32,2.67l0,0h-.26a7.09,7.09,0,0,0,1.62-3.57q0-.74-1.28-1Q196.38,31.21,195.93,32.93Z" style="fill:#537c8e"/><path d="M217.46,30.43l.95,0a3,3,0,0,1,2.9,1.83,36.91,36.91,0,0,1,.93,4,4.68,4.68,0,0,0,4.64,3.08q3.18,0,7-3.69a5.27,5.27,0,0,1,1.09-.18q.83.39.83,1,0,.9-1.71,2.11a14,14,0,0,1-5.84,2.9q-.77.07-1.2.07h-.28a7.07,7.07,0,0,1-6.8-4.27l-.14-.09a23,23,0,0,1-1.12,2.13q-2.65,3.57-5.78,3.57h-.07q-2.39,0-3.64-2.67a4.43,4.43,0,0,1-.25-1.35,9.62,9.62,0,0,1,3-6.17A7.86,7.86,0,0,1,217.46,30.43Zm-6.17,8.09a2.07,2.07,0,0,0,1.53,2.23h.35q2.5,0,5.08-5.36A8.18,8.18,0,0,0,219,33v-.42a3.2,3.2,0,0,1-1.09,0q-3.69-.07-5.78,3.67A4.05,4.05,0,0,0,211.29,38.52Z" style="fill:#537c8e"/><path d="M247.8,7.49H248a1.83,1.83,0,0,1,1.05,1.85v.07q0,3.74-4.61,14.8a78.16,78.16,0,0,1-6.87,12.06,2.76,2.76,0,0,0-1,1.83v.21A7.06,7.06,0,0,0,238,41.47a4.44,4.44,0,0,0,3,1.39h.9a14.48,14.48,0,0,0,5.38-2q3.11-2.79,4.36-4.13.88-1.07,1.53-1.07h.25a1.21,1.21,0,0,1,.83,1.11Q254.06,38,249,42.1a13.36,13.36,0,0,1-7.86,2.83q-5.27,0-7-5.82a15.12,15.12,0,0,1-.3-1.78A21.63,21.63,0,0,1,235.62,29a10.58,10.58,0,0,1,1.16-3.09A65.3,65.3,0,0,1,242,14a27.9,27.9,0,0,1,2.21-3.52,12,12,0,0,0,1-1.71A3.34,3.34,0,0,1,247.8,7.49ZM236.51,33.75a.83.83,0,0,1,.05.37l-.05.09h-.16a44.32,44.32,0,0,0,3-4.92A86.78,86.78,0,0,0,245,16.72a30.33,30.33,0,0,0,1.39-5.54q-.07-.62-.07-.35h.37q-.54,0-3.69,6.1a100.9,100.9,0,0,0-5.52,13.43Q236.9,32.1,236.51,33.75Z" style="fill:#537c8e"/><path d="M260.24,30.43l.95,0a3,3,0,0,1,2.9,1.83,36.91,36.91,0,0,1,.93,4,4.68,4.68,0,0,0,4.64,3.08q3.18,0,7-3.69a5.27,5.27,0,0,1,1.09-.18q.83.39.83,1,0,.9-1.71,2.11a14,14,0,0,1-5.84,2.9q-.77.07-1.2.07h-.28a7.07,7.07,0,0,1-6.8-4.27l-.14-.09a23,23,0,0,1-1.12,2.13q-2.65,3.57-5.78,3.57h-.07q-2.39,0-3.64-2.67a4.43,4.43,0,0,1-.25-1.35,9.62,9.62,0,0,1,3-6.17A7.86,7.86,0,0,1,260.24,30.43Zm-6.17,8.09a2.07,2.07,0,0,0,1.53,2.23H256q2.5,0,5.08-5.36a8.18,8.18,0,0,0,.74-2.43v-.42a3.2,3.2,0,0,1-1.09,0q-3.69-.07-5.78,3.67A4.05,4.05,0,0,0,254.07,38.52Z" style="fill:#537c8e"/><path d="M277.54,28.85q3.66.44,3.66,3.46,0,2.06-2.32,5.13V37.2q1.34,1.49,1.16,1.49v-.33l.69.33s1.55-.62,4.52-1.86a41.43,41.43,0,0,1,5.8-1.46,1.27,1.27,0,0,1,1,1.35,2.27,2.27,0,0,1-2.14,1.16,23.36,23.36,0,0,0-7.7,3l1,3.3.18,1h.11l-.14-.3-.07.14,0,.05q-.12,1.05.07.63h0q-1,4-2.67,5-1,1.2-4.18,1.79l-.69.33V52.7q.44-.21-.19-.12-1.18-.16-.9,0v-.09q-2.5-1.09-2.5-3.13,0-3.76,5.71-8.7.33-.3.33-.44v-.07a13.91,13.91,0,0,0-2-2.23,9.82,9.82,0,0,1-2.5-4.34q0-.54.07-.54,0,.47-.07.33a5.64,5.64,0,0,1,1-3A3.5,3.5,0,0,1,277.54,28.85Zm-2.81,20.34v.53q.14.79.83.79,2,0,4.31-2.3a5.83,5.83,0,0,0,.88-3.41q-.39-2.48-.93-2.48a13.82,13.82,0,0,0-4.11,4.11A4.45,4.45,0,0,0,274.73,49.19Zm1.48-16.26v.16a4.47,4.47,0,0,0,1.32,2.67l0,0h-.26a7.09,7.09,0,0,0,1.62-3.57q0-.74-1.28-1Q276.66,31.21,276.2,32.93Z" style="fill:#537c8e"/><path d="M365.5,15.12h.63a8.84,8.84,0,0,1,6.94,3A9.55,9.55,0,0,1,375,24.07V25q0,3.76-3.81,7a18.71,18.71,0,0,1-4.48,2.58q-8.19,3.41-21.11,3.41A118.74,118.74,0,0,1,325.7,36a74.08,74.08,0,0,0-12.16-.91,92.57,92.57,0,0,0-23.2,2.9q-1.14-.32-1.14-1.16v-.35q0-.91,3.45-1.49a94,94,0,0,1,20.9-2.32,103,103,0,0,1,18.14,1.83,100.46,100.46,0,0,0,13.64,1H346q16.19,0,23.71-5.4,3-2.5,3-5.48,0-4.89-3.46-6.49a10.12,10.12,0,0,0-3.55-.67q-.32,0-2.94.28-.9,0-1-1.34T365.5,15.12Z" style="fill:#537c8e"/><path d="M198.79,16.14a2.45,2.45,0,0,0-2.12,2.45,2.6,2.6,0,0,0,3,2.35,2,2,0,0,0,1.83-2.33C201.43,17.17,200,15.86,198.79,16.14Zm19.11,1.05c-1.13-.06-2.71,1.73-2.55,2.87a.92.92,0,0,0,.81.82c1.13.15,2.53-1.5,2.47-2.88A.75.75,0,0,0,217.9,17.19ZM152.11,6.13a1,1,0,0,0-1.36.54c-.62,1.5.22,2.29,1.93,2.89C153.32,8.14,153.3,7,152.11,6.13Zm25.69,12a1.83,1.83,0,0,0-1.59,2.07,1.09,1.09,0,0,0,1.11,1c1.2-.07,1.57-.92,1.57-1.95C178.68,18.66,178.37,18,177.8,18.11ZM134.55,7.46c-1-.06-1.4.63-1.48,1.56.23.8.54,1.59,1.54,1.62S136,9.89,136,9A1.43,1.43,0,0,0,134.55,7.46ZM243.85.94c-1.25,1.73.37,2.15,1.32,3.08C246.17,1.17,246.17,1.15,243.85.94Zm0,0h0l.06-.08Zm-54,4.64c-.66.08-.83.67-.72,1.25A1.33,1.33,0,0,0,190.86,8c.6-.14.94-.54.79-1.37A1.62,1.62,0,0,0,189.8,5.58Zm64.7,7.32a1.3,1.3,0,0,0-1.25,1.42,1.21,1.21,0,0,0,1.43,1.19,1.33,1.33,0,0,0,1.27-1.4A1.3,1.3,0,0,0,254.5,12.89Zm-23.78-4c-.1-.6-.39-1-1-1a1.16,1.16,0,0,0-1.08,1,1,1,0,0,0,.85,1.14C230.32,10.23,230.57,9.59,230.72,8.91Zm-63,21.26a.91.91,0,0,0-1,1c0,.52.31,1.08,1,.89s.76-.66.73-1.23S168.17,30.17,167.76,30.16ZM181.16,0a.69.69,0,0,0-.53.91.75.75,0,0,0,.92.48c.37-.19.71-.42.52-.9A.73.73,0,0,0,181.16,0ZM314.71,42a2.49,2.49,0,0,0-2.31,2.34A2.63,2.63,0,0,0,315.25,47a2.07,2.07,0,0,0,2-2.24C317.28,43.27,316,41.83,314.71,42ZM343,44.51c-1.13-.15-2.85,1.56-2.77,2.74a.94.94,0,0,0,.75.9c1.13.24,2.65-1.34,2.69-2.75A.76.76,0,0,0,343,44.51Zm-82-22.3c-.51-.43-1.18,0-1.41.45-.73,1.48,0,2.35,1.72,3.09C262,24.36,262.09,23.16,261,22.21Zm25.52,1.51a1.86,1.86,0,0,0-1.75,2,1.1,1.1,0,0,0,1,1.13c1.21,0,1.64-.82,1.72-1.87C287.32,24.36,287.05,23.69,286.48,23.72ZM230.92,28.4c-1-.13-1.45.54-1.6,1.49.18.83.42,1.67,1.42,1.77s1.44-.67,1.54-1.54A1.46,1.46,0,0,0,230.92,28.4ZM331,19.88c-1.38,1.67.21,2.22,1.09,3.24C333.34,20.28,333.35,20.26,331,19.88Zm0,0h0l.06-.08Zm-24.51,6.71c-.67,0-.89.62-.82,1.22a1.34,1.34,0,0,0,1.69,1.36c.61-.1,1-.48.9-1.34A1.63,1.63,0,0,0,306.48,26.58Zm54.36,16.27a1.32,1.32,0,0,0-1.36,1.35,1.23,1.23,0,0,0,1.34,1.32,1.35,1.35,0,0,0,1.37-1.34C362.09,43.38,361.65,42.83,360.83,42.85ZM346.3,26a1.17,1.17,0,0,0-1.16,1,1,1,0,0,0,.77,1.22c.87.18,1.16-.45,1.36-1.14C347.22,26.4,347,25.94,346.3,26ZM264,43.67a.93.93,0,0,0-1.05,1c0,.54.23,1.12,1,1s.81-.61.82-1.2S264.39,43.71,264,43.67Zm34.24-19.39a.71.71,0,0,0-.6.89.75.75,0,0,0,.89.55c.38-.16.74-.37.59-.88A.73.73,0,0,0,298.22,24.29ZM80.91,43.78c-1.13-.15-2.85,1.56-2.77,2.74a.94.94,0,0,0,.75.9c1.13.24,2.65-1.34,2.69-2.75A.76.76,0,0,0,80.91,43.78ZM26,22.59c-.51-.43-1.18,0-1.41.45-.73,1.48,0,2.35,1.72,3.09C27.07,24.73,27.14,23.54,26,22.59ZM50.32,31a1.86,1.86,0,0,0-1.75,2,1.1,1.1,0,0,0,1,1.13c1.21,0,1.64-.82,1.72-1.87C51.16,31.62,50.89,30.95,50.32,31ZM7,27.66c-1-.13-1.45.54-1.6,1.49.18.83.42,1.67,1.42,1.77s1.44-.67,1.54-1.54A1.46,1.46,0,0,0,7,27.66ZM117.1,22.13h0l.06-.08Zm0,0c-1.38,1.67.21,2.22,1.09,3.24C119.45,22.54,119.45,22.53,117.14,22.14ZM71.91,23.72c-.67,0-.89.62-.82,1.22a1.34,1.34,0,0,0,1.69,1.36c.61-.1,1-.48.9-1.34A1.63,1.63,0,0,0,71.91,23.72Zm65-1.6a1.32,1.32,0,0,0-1.36,1.35,1.23,1.23,0,0,0,1.34,1.32,1.35,1.35,0,0,0,1.37-1.34C138.19,22.64,137.75,22.1,136.94,22.12ZM102.4,24.48a1.29,1.29,0,0,0-1.16,1.23,1.27,1.27,0,0,0,.77,1.56c.87.23,1.16-.57,1.36-1.45C103.33,25,103.06,24.45,102.4,24.48ZM40.55,46.15a.93.93,0,0,0-1.05,1c0,.54.23,1.12,1,1s.81-.61.82-1.2S41,46.18,40.55,46.15ZM54.33,23.55a.71.71,0,0,0-.6.89.75.75,0,0,0,.89.55c.38-.16.74-.37.59-.88A.73.73,0,0,0,54.33,23.55Z" style="fill:#537c8e"/></svg>