<svg xmlns="http://www.w3.org/2000/svg" viewBox="0 0 483.98 121.57"><title>Logo</title><description>Trisha Salas Signature</description><path d="M250.5,18.49a2.81,2.81,0,0,0-2.43,2.81,3,3,0,0,0,3.45,2.7,2.33,2.33,0,0,0,2.1-2.67C253.52,19.67,251.93,18.17,250.5,18.49Zm21.89,1.2c-1.3-.07-3.1,2-2.92,3.29a1.06,1.06,0,0,0,.93.94c1.3.17,2.9-1.72,2.83-3.3A.86.86,0,0,0,272.4,19.69ZM197,7a1.09,1.09,0,0,0-1.56.62c-.71,1.72.25,2.62,2.21,3.31C198.41,9.33,198.39,8,197,7Zm18,13.72a2.1,2.1,0,0,0-1.82,2.37,1.24,1.24,0,0,0,1.27,1.18c1.37-.08,1.8-1.06,1.79-2.23C216,21.38,215.65,20.65,215,20.74ZM176.91,8.55c-1.16-.06-1.6.73-1.69,1.79.27.92.62,1.83,1.76,1.86s1.59-.87,1.63-1.85A1.64,1.64,0,0,0,176.91,8.55ZM302.08,1.08h0l.06-.09Zm0,0c-1.43,2,.42,2.47,1.51,3.52C304.78,1.34,304.78,1.32,302.12,1.08ZM240.21,6.39c-.76.09-1,.77-.83,1.43a1.53,1.53,0,0,0,2,1.38c.68-.16,1.08-.62.91-1.57A1.86,1.86,0,0,0,240.21,6.39Zm74.12,8.38a1.49,1.49,0,0,0-1.43,1.62,1.39,1.39,0,0,0,1.63,1.36A1.52,1.52,0,0,0,316,16.14,1.49,1.49,0,0,0,314.33,14.77ZM285.89,9.11a1.33,1.33,0,0,0-1.24,1.18,1.09,1.09,0,0,0,1,1.3c1,.13,1.29-.6,1.46-1.38C287,9.51,286.63,9,285.89,9.11ZM211.52,27.68a1,1,0,0,0-1.12,1.17c0,.6.36,1.23,1.17,1s.87-.75.84-1.41S212,27.69,211.52,27.68ZM230.3,0a.8.8,0,0,0-.6,1,.86.86,0,0,0,1.05.55c.42-.21.81-.48.6-1A.83.83,0,0,0,230.3,0Zm153,48.1a2.86,2.86,0,0,0-2.64,2.68,3,3,0,0,0,3.26,3,2.37,2.37,0,0,0,2.3-2.57C386.24,49.57,384.76,47.92,383.3,48.14ZM405.17,51c-1.29-.17-3.26,1.79-3.18,3.14a1.08,1.08,0,0,0,.86,1c1.29.27,3-1.54,3.09-3.15A.88.88,0,0,0,405.17,51ZM330.51,32.47c-.58-.49-1.35,0-1.61.51-.84,1.7.05,2.69,2,3.54C331.73,34.93,331.8,33.56,330.51,32.47Zm17,15.33a2.13,2.13,0,0,0-2,2.28,1.26,1.26,0,0,0,1.19,1.3c1.38,0,1.88-.94,2-2.14C348.49,48.53,348.18,47.75,347.52,47.8Zm-37.3-15.26c-1.16-.15-1.66.62-1.83,1.7.2,1,.49,1.91,1.63,2s1.66-.77,1.77-1.76A1.67,1.67,0,0,0,310.22,32.53Zm126.14,1.69c-1.58,1.91.24,2.55,1.25,3.71C439,34.69,439,34.67,436.36,34.23Zm0,0h0l.07-.09ZM373.87,35c-.77,0-1,.71-.94,1.39A1.54,1.54,0,0,0,374.87,38c.7-.12,1.13-.55,1-1.53A1.87,1.87,0,0,0,373.87,35Zm73.72,14.05A1.51,1.51,0,0,0,446,50.64a1.41,1.41,0,0,0,1.54,1.51,1.54,1.54,0,0,0,1.57-1.53C449,49.7,448.53,49.07,447.59,49.09ZM419.49,41.2a1.34,1.34,0,0,0-1.33,1.11,1.12,1.12,0,0,0,.88,1.4c1,.21,1.33-.52,1.56-1.3C420.54,41.7,420.24,41.17,419.49,41.2Zm-76,13.41a1.06,1.06,0,0,0-1.21,1.11c0,.61.27,1.28,1.1,1.13s.93-.7.94-1.37S344,54.65,343.51,54.61Zm20.89-26.79a.81.81,0,0,0-.68,1,.86.86,0,0,0,1,.63c.44-.19.85-.42.68-1A.84.84,0,0,0,364.41,27.82ZM103.9,47.29A2.86,2.86,0,0,0,101.26,50a3,3,0,0,0,3.26,3,2.37,2.37,0,0,0,2.3-2.57C106.84,48.72,105.35,47.08,103.9,47.29Zm21.87,2.85c-1.29-.17-3.26,1.79-3.18,3.14a1.08,1.08,0,0,0,.86,1c1.29.27,3-1.54,3.09-3.15A.88.88,0,0,0,125.77,50.15ZM51.11,31.63c-.58-.49-1.35,0-1.61.51-.84,1.7.05,2.69,2,3.54C52.33,34.08,52.4,32.72,51.11,31.63ZM68.12,47a2.13,2.13,0,0,0-2,2.28,1.26,1.26,0,0,0,1.19,1.3c1.38,0,1.88-.94,2-2.14C69.08,47.68,68.78,46.91,68.12,47ZM30.82,31.69c-1.16-.15-1.66.62-1.83,1.7.2,1,.49,1.91,1.63,2s1.66-.77,1.77-1.76A1.67,1.67,0,0,0,30.82,31.69ZM157,33.38c-1.58,1.91.24,2.55,1.25,3.71C159.61,33.84,159.62,33.83,157,33.38Zm0,0h0l.07-.09Zm-62.45.82c-.77,0-1,.71-.94,1.39a1.54,1.54,0,0,0,1.94,1.56c.7-.12,1.13-.55,1-1.53A1.87,1.87,0,0,0,94.47,34.19Zm73.72,14.05a1.51,1.51,0,0,0-1.56,1.55,1.41,1.41,0,0,0,1.54,1.51,1.54,1.54,0,0,0,1.57-1.53C169.63,48.85,169.12,48.23,168.19,48.25Zm-28.11-7.89a1.34,1.34,0,0,0-1.33,1.11,1.12,1.12,0,0,0,.88,1.4c1,.21,1.33-.52,1.56-1.3C141.14,40.85,140.84,40.33,140.08,40.36Zm-76,13.41a1.06,1.06,0,0,0-1.21,1.11c0,.61.27,1.28,1.1,1.13s.93-.7.94-1.37S64.58,53.81,64.11,53.77ZM85,27a.81.81,0,0,0-.68,1,.86.86,0,0,0,1,.63c.44-.19.85-.42.68-1A.84.84,0,0,0,85,27Z"/><path d="M34,55.76h1q5.63,0,13.29,3.47,21.88,8.1,40.7,8.1H92.2A88.91,88.91,0,0,0,125,61a30.33,30.33,0,0,1,4.31-1.9h.28q1.23.39,1.23,1.41v.28q0,1.18-3.4,2.48-3.89,2.06-13.33,4.47a98.13,98.13,0,0,1-23.57,2.8Q66.9,70.53,41.64,60a26.3,26.3,0,0,0-7.13-1.09h-.09q-8.59,0-13.06,5.42a7.79,7.79,0,0,0-1.27,4,10.71,10.71,0,0,0,4.05,8.43,17.75,17.75,0,0,0,3.8,2,2.24,2.24,0,0,1,.49,1.41,1.71,1.71,0,0,1-1.69,1.32A13.67,13.67,0,0,1,18.63,75,15.64,15.64,0,0,1,17,68.2q0-6.53,7.82-10.44A22.36,22.36,0,0,1,34,55.76Z"/><path d="M142.62,27.5q1.27,0,2,2.27h0l-.26-.53q0,3.22-2.73,10.76a.22.22,0,0,0,0,.12s.12,0,.37,0q3,0,15.53-3.7h.67q1.67.14,1.67,1.5t-5.81,2.59q-9.51,2.71-12.36,2.71-1.67,0-2.41,2.85a109.75,109.75,0,0,1-6.18,12q-2.22,3.08-2.22,3.94v.32l.21,1.09a22.23,22.23,0,0,0,4.51,7.06,7.52,7.52,0,0,0,4.61,1.69h.28a11.54,11.54,0,0,0,7.18-2.68,14.79,14.79,0,0,0,5-5.25,23.71,23.71,0,0,1,2.55-4.42,1.77,1.77,0,0,1,.93-.32h.14a1.55,1.55,0,0,1,1.46,1.6q-.69,2.29-4.19,7.41a22.87,22.87,0,0,1-5,4.21,15.44,15.44,0,0,1-7.32,2.2h-1.48A9.56,9.56,0,0,1,131.32,70q-3-3.12-4.17-9.21a3.89,3.89,0,0,1-.12-1.09h-.26l.26.53V57.89a1.47,1.47,0,0,1,0-.39.77.77,0,0,1,0-.28q.09-2-.16-2l.25.53q0-2.78,3-10.51a2.36,2.36,0,0,0,.07-.65v-.19c0,.12-.13.16-.39.12q-1.64.09-2.15.19-1.06-.09-1.87-.09h-2.38q-2.08-.49-2.08-1.32v-.18q0-.56,1.48-1.23l1.32.09q4.93-.28,5.28-.28h1.2q1.18,0,2.55-3.4a28.24,28.24,0,0,0,2.25-4,4,4,0,0,0,1.09-1.6Q140.1,27.5,142,27.5Zm-12,28.84-.26-.53v1c0-.09-.11-.14-.28-.14q.49-.25,2.52-3.77,1.85-3.42,4.1-8.54V44.1c0-.11,0-.16-.07-.16h-.44q-2.32.16-2.31.83-3.52,8.31-3.52,10.35Q130.33,56.34,130.58,56.34ZM135.51,41v0q0-.12.25-.12,2.18,0,2.52-.93A78.41,78.41,0,0,0,141,31.6c0,.08,0,.12,0,.12h.18Q136.56,37.41,135.51,41Z"/><path d="M167.69,53.19a1.43,1.43,0,0,1,1.37,1.53,36.3,36.3,0,0,1-2.48,4q-3.08,7-3.08,10.53.23,4,2.38,5a1.36,1.36,0,0,0,.65.21h.37q2.31,0,6.09-3a51.84,51.84,0,0,0,6.55-8.73q1.41-3.17,2.89-3.17,1.43.39,1.44,1.5v.28q-.39,1.3-4.72,7.64A24.25,24.25,0,0,1,171.84,76a13.85,13.85,0,0,1-5,1.39h-.14q-3.52,0-5.79-4.4a8.76,8.76,0,0,1-.53-3.49,22.67,22.67,0,0,1,2.27-9.38l.6-1.92v-.46a.35.35,0,0,0,.39.39h-.19a12.89,12.89,0,0,0-4,1.25,10.67,10.67,0,0,0-3,2,2.18,2.18,0,0,1-2.13-1.62l.86-1.39a8.25,8.25,0,0,1,2.64-1.44,75.77,75.77,0,0,0,8.94-3.73Z"/><path d="M183.32,59.07h.16q1.46.3,1.46,1.5v.65q-1.18,3.57-2.25,4.54a9.9,9.9,0,0,0-1.46,4.72q0,1,1.55,1,4.26,0,11.92-6.9a3,3,0,0,1,1.44-1.23q1.76-1.67,3.8-4h.95q1.37.19,1.37,1.41v.19q0,.76-2.27,3.06a13.73,13.73,0,0,1-3,2.78q-8.52,7.8-14.35,7.8-4.47,0-4.47-4.19a17.64,17.64,0,0,1,1.25-5.32q2.82-5.81,2.92-5.81T183.32,59.07Zm6.14-10.93q1.18,0,1.41,1.64a2.83,2.83,0,0,1-2.15,2.69,3.67,3.67,0,0,1-1.5.35q-2-.42-2-2,0-1.85,3.31-2.59A3.66,3.66,0,0,1,189.45,48.15Z"/><path d="M200.24,50.49q4.81.58,4.81,4.56,0,2.71-3.06,6.76v-.32q1.76,2,1.53,2V63l.9.44q.09,0,5.95-2.45A54.6,54.6,0,0,1,218,59.07a1.67,1.67,0,0,1,1.3,1.78,3,3,0,0,1-2.82,1.53,30.77,30.77,0,0,0-10.14,3.91l1.37,4.35.23,1.27h.14l-.19-.39-.09.19,0,.07q-.16,1.39.09.83h0q-1.34,5.23-3.52,6.57-1.37,1.57-5.51,2.36L198,82V81.9q.58-.28-.26-.16-1.55-.21-1.18,0v-.12q-3.29-1.44-3.29-4.12,0-5,7.52-11.46.44-.39.44-.58v-.09a18.34,18.34,0,0,0-2.64-2.94q-3-3.5-3.29-5.72,0-.72.09-.72,0,.62-.09.44a7.43,7.43,0,0,1,1.32-4A4.61,4.61,0,0,1,200.24,50.49Zm-3.7,26.78V78q.18,1,1.09,1,2.69,0,5.67-3a7.68,7.68,0,0,0,1.16-4.49q-.51-3.26-1.23-3.26-2.22,1.11-5.42,5.42A5.86,5.86,0,0,0,196.54,77.27Zm1.94-21.41v.21a5.89,5.89,0,0,0,1.74,3.52l0,0h-.35q2.13-3,2.13-4.7,0-1-1.69-1.27Q199.08,53.59,198.48,55.86Z"/><path d="M236.52,26.9h.21q2,.23,2,2,0,4.61-7,16.6a104.13,104.13,0,0,1-7.55,10.25q-5.14,6.23-5.14,7a23.32,23.32,0,0,0-.74,4.88q.07.28-.21.28h0a16.41,16.41,0,0,0,2.34-3.82q2.38-2.85,4.84-2.85,3.19,0,5.35,5.74,1.46,3.31,2.94,3.94a2.44,2.44,0,0,0,1.07.23h.56q2.18,0,4.93-2.75a22.5,22.5,0,0,0,3-5.63q.86-3.56,2.34-3.57t1.48,1.48a26,26,0,0,1-4.56,9.63A9.91,9.91,0,0,1,234.57,74q-4.93,0-7.38-6.83-1.55-2.89-2-2.89a.63.63,0,0,0-.21-.09h-.09q-2.2,0-5.09,7.92l-.86,4.68a3.68,3.68,0,0,1-1.27.74q-1.83,0-2.06-3.38a33.08,33.08,0,0,1-.37-3.38q0-8.59,2.36-13.24,7.73-18.38,11.55-23.33a42.25,42.25,0,0,1,4.61-5.9A4.56,4.56,0,0,1,236.52,26.9ZM222.65,53.82a.36.36,0,0,0-.39-.35q.46,0,3.7-4.86a63,63,0,0,0,7.25-12,35.44,35.44,0,0,0,2.27-6v-.09c0,.06,0,.09-.07.09a28,28,0,0,0-3.13,4.1q-5.19,7.59-5.19,8.61-3.31,7-4.44,10.23Z"/><path d="M254,52.57l1.25,0A3.91,3.91,0,0,1,259.06,55a48.92,48.92,0,0,1,1.23,5.23,6.16,6.16,0,0,0,6.11,4.05q4.19,0,9.26-4.86a7,7,0,0,1,1.44-.23q1.09.51,1.09,1.32,0,1.18-2.25,2.78a18.37,18.37,0,0,1-7.68,3.82c-.68.06-1.2.09-1.57.09h-.37a9.3,9.3,0,0,1-9-5.63l-.18-.12a30.74,30.74,0,0,1-1.48,2.8q-3.5,4.7-7.62,4.7H248q-3.15,0-4.79-3.52a5.85,5.85,0,0,1-.32-1.78q.14-4.05,4-8.13A10.36,10.36,0,0,1,254,52.57Zm-8.13,10.65a2.73,2.73,0,0,0,2,2.94h.46q3.29,0,6.69-7.06a10.78,10.78,0,0,0,1-3.2v-.56a4.19,4.19,0,0,1-1.44,0q-4.86-.09-7.62,4.84A5.34,5.34,0,0,0,245.87,63.22Z"/><path d="M276.77,50.49q4.82.58,4.82,4.56,0,2.71-3.06,6.76v-.32q1.76,2,1.53,2V63l.9.44q.09,0,6-2.45a54.6,54.6,0,0,1,7.64-1.92,1.67,1.67,0,0,1,1.3,1.78A3,3,0,0,1,293,62.39a30.76,30.76,0,0,0-10.14,3.91l1.37,4.35.23,1.27h.14l-.18-.39-.09.19,0,.07q-.16,1.39.09.83h0q-1.34,5.23-3.52,6.57-1.37,1.57-5.51,2.36l-.9.44V81.9q.58-.28-.26-.16-1.55-.21-1.18,0v-.12q-3.29-1.44-3.29-4.12,0-5,7.52-11.46.44-.39.44-.58v-.09a18.34,18.34,0,0,0-2.64-2.94q-3-3.5-3.29-5.72,0-.72.09-.72,0,.62-.09.44a7.43,7.43,0,0,1,1.32-4A4.61,4.61,0,0,1,276.77,50.49Zm-3.7,26.78V78q.18,1,1.09,1,2.68,0,5.67-3A7.68,7.68,0,0,0,281,71.48q-.51-3.26-1.23-3.26-2.22,1.11-5.42,5.42A5.86,5.86,0,0,0,273.07,77.27ZM275,55.86v.21a5.89,5.89,0,0,0,1.74,3.52l0,0h-.35q2.13-3,2.13-4.7,0-1-1.69-1.27Q275.61,53.59,275,55.86Z"/><path d="M303.37,52.57l1.25,0A3.91,3.91,0,0,1,308.44,55a48.51,48.51,0,0,1,1.23,5.23,6.17,6.17,0,0,0,6.11,4.05q4.19,0,9.26-4.86a7,7,0,0,1,1.44-.23q1.09.51,1.09,1.32,0,1.18-2.25,2.78a18.38,18.38,0,0,1-7.69,3.82q-1,.09-1.57.09h-.37a9.3,9.3,0,0,1-9-5.63l-.19-.12a29.91,29.91,0,0,1-1.48,2.8q-3.5,4.7-7.62,4.7h-.09q-3.15,0-4.79-3.52a5.85,5.85,0,0,1-.32-1.78q.14-4.05,4-8.13A10.36,10.36,0,0,1,303.37,52.57Zm-8.13,10.65a2.73,2.73,0,0,0,2,2.94h.46q3.29,0,6.69-7.06a10.78,10.78,0,0,0,1-3.2v-.56a4.2,4.2,0,0,1-1.44,0q-4.86-.09-7.62,4.84A5.35,5.35,0,0,0,295.24,63.22Z"/><path d="M343.33,22.36h.3A2.4,2.4,0,0,1,345,24.79v.09q0,4.93-6.06,19.49-2.36,5.74-9.05,15.88a3.64,3.64,0,0,0-1.27,2.41v.28q0,1.34,1.81,4.17a5.85,5.85,0,0,0,4,1.83h1.18q2.43-.14,7.08-2.69,4.1-3.68,5.74-5.44,1.16-1.41,2-1.41h.32a1.59,1.59,0,0,1,1.09,1.46q-.3,1.64-6.9,7.08a17.6,17.6,0,0,1-10.35,3.73q-6.94,0-9.26-7.66a19.86,19.86,0,0,1-.39-2.34,28.52,28.52,0,0,1,2.31-11,13.94,13.94,0,0,1,1.53-4.07A85.89,85.89,0,0,1,335.69,31a36.8,36.8,0,0,1,2.92-4.63A15.84,15.84,0,0,0,340,24.1,4.39,4.39,0,0,1,343.33,22.36ZM328.47,56.94a1.12,1.12,0,0,1,.07.49l-.07.12h-.21a58.61,58.61,0,0,0,4-6.48,114.25,114.25,0,0,0,7.36-16.55,39.93,39.93,0,0,0,1.83-7.29q-.09-.81-.09-.46h.49q-.72,0-4.86,8a132.92,132.92,0,0,0-7.27,17.69Q329,54.77,328.47,56.94Z"/><path d="M359.72,52.57l1.25,0A3.91,3.91,0,0,1,364.79,55,48.92,48.92,0,0,1,366,60.26a6.16,6.16,0,0,0,6.11,4.05q4.19,0,9.26-4.86a7,7,0,0,1,1.44-.23q1.09.51,1.09,1.32,0,1.18-2.25,2.78A18.37,18.37,0,0,1,374,67.13c-.68.06-1.2.09-1.57.09H372a9.3,9.3,0,0,1-9-5.63l-.18-.12a30.74,30.74,0,0,1-1.48,2.8q-3.5,4.7-7.62,4.7h-.09q-3.15,0-4.79-3.52a5.85,5.85,0,0,1-.32-1.78q.14-4.05,4-8.13A10.35,10.35,0,0,1,359.72,52.57Zm-8.12,10.65a2.73,2.73,0,0,0,2,2.94h.46q3.29,0,6.69-7.06a10.78,10.78,0,0,0,1-3.2v-.56a4.19,4.19,0,0,1-1.44,0q-4.86-.09-7.62,4.84A5.34,5.34,0,0,0,351.59,63.22Z"/><path d="M382.5,50.49q4.82.58,4.82,4.56,0,2.71-3.06,6.76v-.32q1.76,2,1.53,2V63l.9.44q.09,0,6-2.45a54.6,54.6,0,0,1,7.64-1.92,1.67,1.67,0,0,1,1.3,1.78,3,3,0,0,1-2.82,1.53,30.76,30.76,0,0,0-10.14,3.91L390,70.65l.23,1.27h.14l-.18-.39-.09.19,0,.07q-.16,1.39.09.83h0q-1.34,5.23-3.52,6.57-1.37,1.57-5.51,2.36l-.9.44V81.9q.58-.28-.26-.16-1.55-.21-1.18,0v-.12q-3.29-1.44-3.29-4.12,0-5,7.52-11.46.44-.39.44-.58v-.09a18.34,18.34,0,0,0-2.64-2.94q-3-3.5-3.29-5.72,0-.72.09-.72,0,.62-.09.44a7.43,7.43,0,0,1,1.32-4A4.61,4.61,0,0,1,382.5,50.49Zm-3.7,26.78V78q.18,1,1.09,1,2.68,0,5.67-3a7.68,7.68,0,0,0,1.16-4.49q-.51-3.26-1.23-3.26-2.22,1.11-5.42,5.42A5.86,5.86,0,0,0,378.79,77.27Zm1.94-21.41v.21a5.89,5.89,0,0,0,1.74,3.52l0,0h-.35q2.13-3,2.13-4.7,0-1-1.69-1.27Q381.34,53.59,380.74,55.86Z"/><path d="M463.36,46.32q2.45,0,3.54,4.54a9.68,9.68,0,0,1,.09,1.32q0,4.61-5.74,8.26a22.17,22.17,0,0,1-5.53,2.2,38.51,38.51,0,0,1-5.72,1v.26q.6-.35-1.11-.16v.18l.53-.25h-2.08q.49,0,.49.44l-.9-.44h-.32q.49,0,.49.44l-.9-.44h0q.49,0,.49.44l-.9-.44H444l.16,0s-.42,0-1.25,0v.25l.39-.18.39.18V64a7.7,7.7,0,0,1-.86-.44,37.73,37.73,0,0,1-4.33-.28v.09Q433.89,62.76,424,61c.35,0,.53.06.53.19l-2.5-.37v.07q-1.9-.23-1.9-.25,1.06,0,1.06.21l-1.09-.21h-.79c-.45,0-.67,0-.67-.09.71,0,1.07.05,1.07.16l-1.67-.19v.37a7.61,7.61,0,0,1-.86-.44q-3.15-.09-4.1-.09v.25l.53-.25H411.5q-5.07,0-7.38,1.07a15.78,15.78,0,0,1-4.21,1.07q-1.3-.51-1.3-1.5V60.7q0-1.39,6-2.78a48.2,48.2,0,0,1,6.44-.81V56.9l-.53.26h1.81q-.49,0-.49-.44l.9.44h0c-.33,0-.49-.15-.49-.44l.76.37.18-.09.19.09.18-.09.18.09L414,57l.16.09a8.08,8.08,0,0,1,1,0v.09q-1.06,0-1.06-.19l1.27.19h.51q1,0,3.54.12v.07q-1.06,0-1.06-.14,3.63.32,3.15.14v0a11.18,11.18,0,0,0,2.22.51v-.09q7.41,1.11,11.85,2v-.09l1.48.28v-.12a22.49,22.49,0,0,0,4.49.51q0,.09-1.06.09v-.21a23.39,23.39,0,0,0,2.87.35v-.39l.9.44h4.26l1.27-.19v-.16l-.53.25h.83l1.27-.18v.09a24.91,24.91,0,0,0,6.11-1.53q6-2.82,6-6.78v-.28A8.8,8.8,0,0,0,462,48v-.35Q462.48,46.32,463.36,46.32Z"/></svg>