<svg xmlns="http://www.w3.org/2000/svg" viewBox="0 0 576.504 576.504"><path d="M7.956 447.371c-.408.814-1.428 1.225-3.06 1.225H3.06c-2.04-1.225-3.06-2.65-3.06-4.285V200.123c0-2.04.816-3.468 2.448-4.284a9.945 9.945 0 0 1 4.896 0l162.792 93.024c1.632.814 2.448 2.041 2.448 3.672 0 2.041-.612 3.264-1.836 3.672L7.956 447.371zm547.128 67.32c1.225 1.633 1.633 3.264 1.225 4.896-1.225 2.039-2.854 3.063-4.896 3.063H18.972c-2.856 0-5.916-1.021-9.18-3.063-1.632-.816-2.448-2.041-2.448-3.672 0-1.633.612-2.857 1.836-3.672l207.468-192.781c1.632-1.631 3.468-1.836 5.508-.611l55.08 31.215c7.752 4.484 15.707 4.484 23.867 0l62.424-36.723c2.449-1.633 4.285-1.428 5.512.611l186.045 200.737zm18.973-322.524c1.631.816 2.447 2.244 2.447 4.284v258.263c0 2.041-1.021 3.469-3.063 4.285-.404.408-1.02.611-1.836.611-1.223 0-2.445-.611-3.672-1.836L413.1 290.699c-1.223-1.227-1.631-2.448-1.223-3.672 0-1.632.609-2.856 1.836-3.672l155.447-91.188c1.225-1.224 2.856-1.224 4.897 0zM556.92 53.855c5.713 0 10.404 1.836 14.076 5.508s5.508 8.16 5.508 13.464v58.752c0 2.856-1.428 4.284-4.283 4.284-2.449.408-4.693 1.428-6.732 3.06L291.313 299.878c-.408.408-1.225.613-2.449.613s-2.04-.205-2.446-.613L3.672 138.923C1.224 137.291 0 135.659 0 134.027v-61.2c0-5.304 1.836-9.792 5.508-13.464s8.16-5.508 13.464-5.508H556.92z" fill="#010002"/></svg>