<svg xmlns="http://www.w3.org/2000/svg" viewBox="0 0 64 56.37"><title>Coffee Cup Icon</title><path d="M58.87 17.91h-2.82c.06-.9.13-1.73.16-2.44a2.54 2.54 0 0 0-2.56-2.69H2.57A2.58 2.58 0 0 0 0 15.48C.55 25 4.1 56.37 28.11 56.37c13.59 0 20.64-10.06 24.26-20.51h3.94c.13 0 3.88 0 5.13-2.56A31.32 31.32 0 0 0 64 23a5.59 5.59 0 0 0-5.13-5.09zm-18 31.44a19.48 19.48 0 0 1-12.79 4.45 19.48 19.48 0 0 1-12.79-4.45 29.19 29.19 0 0 1-7.69-10.9c-3.75-8.52-4.77-18.14-5-23.11h51.08c-.29 5-1.31 14.61-5 23.14a29.41 29.41 0 0 1-7.79 10.87zm18.26-17.18c-.42.83-2.13 1.13-2.82 1.13H54.1l3-12.82h1.79A3.13 3.13 0 0 1 61.44 23a29 29 0 0 1-2.31 9.17z"/><path d="M49.48 17.91H6.73a1.3 1.3 0 0 0-1.28 1.41 64.41 64.41 0 0 0 4.49 18.11c4.07 9.29 10 13.81 18.14 13.81s14.07-4.52 18.14-13.81a64.41 64.41 0 0 0 4.48-18.11 1.23 1.23 0 0 0-1.22-1.41zM24.26 7a.55.55 0 0 0 0 .22c0 .16 0 .32.06.48s.13.54.19.8A8.92 8.92 0 0 0 25 9.65c.06.13.13.22.16.29a.4.4 0 0 0 .06.1.33.33 0 0 0 .32.16.33.33 0 0 0 .26-.38s0-.16-.06-.42-.1-.64-.16-1.09a4.8 4.8 0 0 1-.06-.71v-.77a1.32 1.32 0 0 1 .22-.54c.13-.19.32-.38.54-.71A4.09 4.09 0 0 0 26.6 5c0-.1.06-.19.1-.32a1.14 1.14 0 0 0 .06-.32 1.39 1.39 0 0 1 0-.16v-.36a2.47 2.47 0 0 0-.06-.48 12.89 12.89 0 0 0-.35-1.63c-.1-.48-.26-.83-.35-1.12l-.17-.42a.35.35 0 0 0-.32-.19.34.34 0 0 0-.29.35s0 .16.06.42.06.67.13 1.12.1 1 .13 1.54v.77a2.21 2.21 0 0 0-.1.26 1.3 1.3 0 0 1-.16.29c-.16.19-.38.45-.61.77a2.32 2.32 0 0 0-.35 1.19V7zM26.83 7a.55.55 0 0 0 0 .22c0 .16 0 .32.06.48s.13.54.19.8a8.92 8.92 0 0 0 .45 1.12c.06.13.13.22.16.29a.4.4 0 0 0 .06.1.33.33 0 0 0 .32.16.33.33 0 0 0 .26-.38s0-.16-.06-.42-.1-.64-.16-1.09a4.8 4.8 0 0 1-.06-.71v-.74a1.32 1.32 0 0 1 .22-.54c.13-.19.32-.38.54-.71a4.09 4.09 0 0 0 .36-.58c0-.1.06-.19.1-.32a1.14 1.14 0 0 0 .06-.32 1.39 1.39 0 0 1 0-.16v-.36a2.47 2.47 0 0 0-.06-.48 12.89 12.89 0 0 0-.35-1.63c-.13-.48-.29-.83-.38-1.12L28.4.19a.35.35 0 0 0-.32-.19.34.34 0 0 0-.29.35s0 .16.06.42.06.67.13 1.12.1 1 .13 1.54v.77a2.21 2.21 0 0 0-.1.26 1.3 1.3 0 0 1-.16.29c-.16.19-.38.45-.61.77a2.32 2.32 0 0 0-.35 1.19v.16c-.06.05-.06.05-.06.13zM29.39 7a.55.55 0 0 0 0 .22c0 .16 0 .32.06.48s.13.54.19.8a8.92 8.92 0 0 0 .45 1.12c.06.13.13.22.16.29a.4.4 0 0 0 .06.1.33.33 0 0 0 .32.16.33.33 0 0 0 .26-.38s0-.16-.06-.42-.1-.64-.16-1.09a4.8 4.8 0 0 1-.06-.71v-.74a1.32 1.32 0 0 1 .22-.54c.13-.19.32-.38.54-.71a4.09 4.09 0 0 0 .36-.58c0-.1.06-.19.1-.32a1.14 1.14 0 0 0 .06-.32 1.39 1.39 0 0 1 0-.16v-.36a2.47 2.47 0 0 0-.06-.48 12.89 12.89 0 0 0-.35-1.63c-.13-.48-.29-.83-.38-1.12L31 .19a.35.35 0 0 0-.36-.19.34.34 0 0 0-.29.35s0 .16.06.42.06.67.13 1.12.1 1 .13 1.54v.77a2.21 2.21 0 0 0-.1.26 1.3 1.3 0 0 1-.16.29c-.16.19-.38.45-.61.77a2.32 2.32 0 0 0-.35 1.19v.16c-.06.05-.06.05-.06.13z"/></svg>