<svg xmlns="http://www.w3.org/2000/svg" viewBox="0 0 578.952 578.952"><path d="M484.093 342.107c0-19.176-2.449-35.902-7.344-50.184-4.896-14.28-11.631-26.112-20.197-35.496-8.568-9.384-18.666-16.32-30.293-20.808-11.629-4.488-24.379-6.732-38.25-6.732-11.02 0-20.605 1.326-28.768 3.978-8.156 2.652-15.195 6.12-21.111 10.404s-10.914 8.874-14.994 13.77-7.547 9.384-10.404 13.464v-35.496h-83.231c.408 6.936.612 20.4.612 40.392v75.891l-.612 135.252h83.231V345.779c0-3.672.205-7.238.613-10.709.408-3.469 1.223-6.631 2.447-9.484 3.264-7.346 8.262-14.279 14.992-20.811 6.732-6.525 16.016-9.791 27.848-9.791 15.096 0 25.908 5.201 32.436 15.605 6.529 10.402 9.793 24.174 9.793 41.311v134.641h83.232V342.107zM141.372 200.736c14.688 0 26.316-4.284 34.884-12.852 8.568-8.568 12.648-18.768 12.24-30.6 0-12.24-4.182-22.542-12.546-30.906-8.364-8.364-19.686-12.546-33.966-12.546s-25.704 4.182-34.272 12.546-12.852 18.666-12.852 30.906c0 11.832 4.08 22.032 12.24 30.6s19.38 12.852 33.66 12.852h.612zm41.616 34.272H99.756v251.533h83.232V235.008zM561.815 0c4.08 0 7.549 1.326 10.404 3.978 2.854 2.652 4.285 6.018 4.285 10.098v550.801c0 4.08-1.432 7.443-4.285 10.098-2.855 2.652-6.324 3.977-10.404 3.977H17.136c-4.08 0-7.548-1.322-10.404-3.977s-4.284-6.018-4.284-10.098V14.076c0-4.08 1.428-7.446 4.284-10.098S13.056 0 17.136 0h544.679z" fill="#010002"/></svg>