<svg xmlns="http://www.w3.org/2000/svg" viewBox="0 0 548.963 548.963"><path d="M548.963 99.682c-3.672 7.752-10.506 17.544-20.502 29.376s-22.338 22.236-37.027 31.212c.408 3.264.715 6.324.918 9.18.205 2.856.307 5.916.307 9.18 0 17.136-1.938 35.904-5.813 56.304s-9.896 41.106-18.053 62.118c-8.16 21.012-18.463 41.82-30.906 62.424-12.445 20.604-27.234 39.678-44.371 57.222-17.135 17.544-36.617 33.051-58.445 46.515-21.826 13.464-46.207 23.46-73.134 29.985-31.416 6.938-62.832 10.404-94.248 10.404-13.464 0-27.438-.714-41.922-2.142-14.484-1.431-28.968-4.08-43.452-7.956s-28.764-9.078-42.84-15.606C25.398 471.373 12.24 463.007 0 452.806c31.824 4.488 61.914 1.938 90.27-7.65s54.162-23.151 77.418-40.695c-5.304 0-12.342-.513-21.114-1.53-8.772-1.021-18.156-4.08-28.152-9.18-9.996-5.103-20.094-12.954-30.294-23.563-10.2-10.605-19.176-25.5-26.928-44.676 2.448.813 5.814 1.326 10.098 1.53s8.874.102 13.77-.309 9.69-.918 14.382-1.527c4.692-.612 8.874-1.326 12.546-2.145-21.216-6.527-37.842-15.198-49.878-26.01-12.036-10.813-20.91-21.93-26.622-33.354s-9.282-22.235-10.71-32.435-2.142-18.156-2.142-23.868c5.304 3.264 13.056 6.732 23.256 10.404s19.38 5.304 27.54 4.896c-16.728-13.872-28.866-27.642-36.414-41.31s-12.036-26.928-13.464-39.78c-1.428-12.852-.714-25.398 2.142-37.638s6.732-24.072 11.628-35.496c22.44 25.296 44.778 45.798 67.014 61.506s43.452 27.846 63.648 36.414 39.066 14.28 56.61 17.136 32.844 4.284 45.9 4.284c-2.448-16.32-2.551-31.824-.309-46.512 2.244-14.688 6.939-28.152 14.076-40.392 7.143-12.24 16.627-22.746 28.459-31.518 11.832-8.772 25.908-15.402 42.229-19.89 19.99-5.712 39.168-5.508 57.525.612 18.361 6.12 34.068 16.729 47.125 31.824 5.711-.408 14.688-2.244 26.93-5.508 12.238-3.264 27.541-10.404 45.898-21.42-1.225 4.08-3.162 9.078-5.813 14.994-2.652 5.916-6.02 11.934-10.1 18.054-4.08 6.12-8.977 12.036-14.688 17.748-5.713 5.712-12.24 10.404-19.584 14.076a974.04 974.04 0 0 0 20.193-4.284c6.119-1.632 13.262-3.774 21.422-6.426s16.528-5.814 25.096-9.486z" fill="#010002"/></svg>