<?xml version="1.0" encoding="UTF-8" standalone="no"?>
<svg
   viewBox="0 0 10300 10300"
   version="1.1"
   id="svg2"
   width="10300"
   height="10300"
   xmlns:xlink="http://www.w3.org/1999/xlink"
   xmlns="http://www.w3.org/2000/svg"
   xmlns:svg="http://www.w3.org/2000/svg">
  <defs
     id="defs2">
    <linearGradient
       id="swatch2">
      <stop
         style="stop-color:#000000;stop-opacity:1;"
         offset="0"
         id="stop2" />
    </linearGradient>
    <linearGradient
       xlink:href="#swatch2"
       id="linearGradient2"
       x1="3.7259614"
       y1="46.634617"
       x2="97.716347"
       y2="46.634617"
       gradientUnits="userSpaceOnUse" />
  </defs>
  <rect
     width="100"
     height="100"
     fill="#ffffff"
     id="rect1"
     x="150"
     y="17.788416" />
  <g
     id="g2"
     transform="translate(150,17.788416)">
    <path
       d="m 32.132305,52.855269 q -10.437975,0 -16.144068,-6.819477 -5.706094,-6.95865 -5.706094,-19.066702 0,-12.108051 5.706094,-18.9275284 5.706093,-6.9586502 16.144068,-6.9586502 10.437975,0 16.144069,6.9586502 5.706093,6.8194774 5.706093,18.9275284 0,12.108052 -5.706093,19.066702 -5.706094,6.819477 -16.144069,6.819477 z m 0,-12.108051 q 4.036017,0 5.56692,-2.922634 1.670076,-2.922633 1.670076,-7.793688 v -6.123612 q 0,-4.871055 -1.670076,-7.793688 -1.530903,-2.922633 -5.56692,-2.922633 -4.036017,0 -5.706093,2.922633 -1.530903,2.922633 -1.530903,7.793688 v 6.123612 q 0,4.871055 1.530903,7.793688 1.670076,2.922634 5.706093,2.922634 z M 76.667666,2.7529874 h 15.72655 L 71.379092,44.504889 H 55.652543 Z M 30.462229,58.143843 H 46.188778 L 25.173655,99.895744 H 9.4471054 Z m 39.38596,43.421977 q -10.437975,0 -16.144068,-6.819477 -5.706093,-6.95865 -5.706093,-19.066701 0,-12.108052 5.706093,-18.927529 5.706093,-6.95865 16.144068,-6.95865 10.437975,0 16.144069,6.95865 5.706093,6.819477 5.706093,18.927529 0,12.108051 -5.706093,19.066701 -5.706094,6.819477 -16.144069,6.819477 z m 0,-12.108051 q 4.036017,0 5.56692,-2.922633 1.670076,-2.922633 1.670076,-7.793688 v -6.123612 q 0,-4.871056 -1.670076,-7.793689 -1.530903,-2.922633 -5.56692,-2.922633 -4.036017,0 -5.706093,2.922633 -1.530903,2.922633 -1.530903,7.793689 v 6.123612 q 0,4.871055 1.530903,7.793688 1.670076,2.922633 5.706093,2.922633 z"
       id="text1"
       style="font-weight:bold;font-size:139.173px;font-family:'IBM Plex Mono', monospace;stroke-width:2.89942"
       aria-label="%" />
    <path
       style="fill:none;fill-opacity:1;stroke:url(#linearGradient2);stroke-width:3;stroke-linejoin:round;stroke-dasharray:none"
       id="rect2"
       width="100"
       height="100"
       x="3.7259614"
       y="11.177885"
       d="M 3.7259614,11.177885 H 103.72596 V 111.17789 H 3.7259614 Z"
       transform="translate(-3.7259615,-9.8557692)" />
  </g>
</svg>
