<svg width="0" height="0" style="position: absolute;" xmlns="http://www.w3.org/2000/svg" xmlns:xlink="http://www.w3.org/1999/xlink"><symbol viewBox="0 0 1792 1792" id="angle-left"><path d="M1203 544q0 13-10 23L800 960l393 393q10 10 10 23t-10 23l-50 50q-10 10-23 10t-23-10L631 983q-10-10-10-23t10-23l466-466q10-10 23-10t23 10l50 50q10 10 10 23z"/></symbol><symbol viewBox="0 0 1792 1792" id="angle-right"><path d="M1171 960q0 13-10 23l-466 466q-10 10-23 10t-23-10l-50-50q-10-10-10-23t10-23l393-393-393-393q-10-10-10-23t10-23l50-50q10-10 23-10t23 10l466 466q10 10 10 23z"/></symbol><symbol viewBox="0 0 1792 1792" id="codepen"><path d="M216 1169l603 402v-359L485 989zm-62-144l193-129-193-129v258zm819 546l603-402-269-180-334 223v359zm-77-493l272-182-272-182-272 182zM485 803l334-223V221L216 623zm960 93l193 129V767zm-138-93l269-180-603-402v359zm485-180v546q0 41-34 64l-819 546q-21 13-43 13t-43-13L34 1233q-34-23-34-64V623q0-41 34-64L853 13q21-13 43-13t43 13l819 546q34 23 34 64z"/></symbol><symbol viewBox="0 0 1792 1792" id="coffee"><path d="M1600 640q0-80-56-136t-136-56h-64v384h64q80 0 136-56t56-136zM-64 1408h1792q0 106-75 181t-181 75H192q-106 0-181-75t-75-181zm1856-768q0 159-112.5 271.5T1408 1024h-64v32q0 92-66 158t-158 66H416q-92 0-158-66t-66-158V320q0-26 19-45t45-19h1152q159 0 271.5 112.5T1792 640z"/></symbol><symbol viewBox="0 0 1792 1792" id="comment-o"><path d="M896 384q-204 0-381.5 69.5T232.5 641 128 896q0 112 71.5 213.5T401 1285l87 50-27 96q-24 91-70 172 152-63 275-171l43-38 57 6q69 8 130 8 204 0 381.5-69.5t282-187.5T1664 896t-104.5-255-282-187.5T896 384zm896 512q0 174-120 321.5t-326 233-450 85.5q-70 0-145-8-198 175-460 242-49 14-114 22h-5q-15 0-27-10.5t-16-27.5v-1q-3-4-.5-12t2-10 4.5-9.5l6-9 7-8.5 8-9q7-8 31-34.5t34.5-38 31-39.5 32.5-51 27-59 26-76q-157-89-247.5-220T0 896q0-174 120-321.5t326-233T896 256t450 85.5 326 233T1792 896z"/></symbol><symbol viewBox="0 0 576.5 468.79" id="email"><title>Email Icon</title><path d="M8 393.52c-.41.81-1.43 1.23-3.06 1.23H3.06Q0 392.9 0 390.46V146.27A4.38 4.38 0 0 1 2.45 142a9.94 9.94 0 0 1 4.9 0l162.79 93a3.92 3.92 0 0 1 2.45 3.67q0 3.06-1.84 3.67zm547.13 67.32a5.64 5.64 0 0 1 1.22 4.9 5.54 5.54 0 0 1-4.9 3.06H19a17.5 17.5 0 0 1-9.18-3.06 3.92 3.92 0 0 1-2.45-3.67 4.12 4.12 0 0 1 1.84-3.67l207.44-192.79a4.09 4.09 0 0 1 5.51-.61l55.08 31.21q11.63 6.73 23.87 0l62.42-36.72q3.67-2.45 5.51.61zm19-322.52a4.38 4.38 0 0 1 2.45 4.28v258.26a4.34 4.34 0 0 1-3.06 4.29 2.49 2.49 0 0 1-1.84.61 5.29 5.29 0 0 1-3.67-1.84L413.1 236.84q-1.83-1.84-1.22-3.67a4.11 4.11 0 0 1 1.84-3.67l155.45-91.19q1.83-1.83 4.89 0zM556.92 0A19.06 19.06 0 0 1 571 5.51 18.31 18.31 0 0 1 576.5 19v58.72q0 4.28-4.28 4.28a14.44 14.44 0 0 0-6.73 3.06L291.31 246a5.19 5.19 0 0 1-4.9 0L3.67 85.07Q0 82.62 0 80.17V19A18.31 18.31 0 0 1 5.51 5.51 18.31 18.31 0 0 1 19 0h537.92z"/></symbol><symbol viewBox="0 0 576.504 576.504" id="email-envelope"><path d="M7.956 447.371c-.408.814-1.428 1.225-3.06 1.225H3.06c-2.04-1.225-3.06-2.65-3.06-4.285V200.123c0-2.04.816-3.468 2.448-4.284a9.945 9.945 0 0 1 4.896 0l162.792 93.024c1.632.814 2.448 2.041 2.448 3.672 0 2.041-.612 3.264-1.836 3.672L7.956 447.371zm547.128 67.32c1.225 1.633 1.633 3.264 1.225 4.896-1.225 2.039-2.854 3.063-4.896 3.063H18.972c-2.856 0-5.916-1.021-9.18-3.063-1.632-.816-2.448-2.041-2.448-3.672 0-1.633.612-2.857 1.836-3.672l207.468-192.781c1.632-1.631 3.468-1.836 5.508-.611l55.08 31.215c7.752 4.484 15.707 4.484 23.867 0l62.424-36.723c2.449-1.633 4.285-1.428 5.512.611l186.045 200.737zm18.973-322.524c1.631.816 2.447 2.244 2.447 4.284v258.263c0 2.041-1.021 3.469-3.063 4.285-.404.408-1.02.611-1.836.611-1.223 0-2.445-.611-3.672-1.836L413.1 290.699c-1.223-1.227-1.631-2.448-1.223-3.672 0-1.632.609-2.856 1.836-3.672l155.447-91.188c1.225-1.224 2.856-1.224 4.897 0zM556.92 53.855c5.713 0 10.404 1.836 14.076 5.508s5.508 8.16 5.508 13.464v58.752c0 2.856-1.428 4.284-4.283 4.284-2.449.408-4.693 1.428-6.732 3.06L291.313 299.878c-.408.408-1.225.613-2.449.613s-2.04-.205-2.446-.613L3.672 138.923C1.224 137.291 0 135.659 0 134.027v-61.2c0-5.304 1.836-9.792 5.508-13.464s8.16-5.508 13.464-5.508H556.92z" fill="#010002"/></symbol><symbol viewBox="0 0 1792 1792" id="envelope-o"><path d="M1664 1504V736q-32 36-69 66-268 206-426 338-51 43-83 67t-86.5 48.5T897 1280h-2q-48 0-102.5-24.5T706 1207t-83-67q-158-132-426-338-37-30-69-66v768q0 13 9.5 22.5t22.5 9.5h1472q13 0 22.5-9.5t9.5-22.5zm0-1051v-24.5l-.5-13-3-12.5-5.5-9-9-7.5-14-2.5H160q-13 0-22.5 9.5T128 416q0 168 147 284 193 152 401 317 6 5 35 29.5t46 37.5 44.5 31.5T852 1143t43 9h2q20 0 43-9t50.5-27.5 44.5-31.5 46-37.5 35-29.5q208-165 401-317 54-43 100.5-115.5T1664 453zm128-37v1088q0 66-47 113t-113 47H160q-66 0-113-47T0 1504V416q0-66 47-113t113-47h1472q66 0 113 47t47 113z"/></symbol><symbol viewBox="0 0 1792 1792" id="github"><path d="M1664 896q0 251-146.5 451.5T1139 1625q-27 5-39.5-7t-12.5-30v-211q0-97-52-142 57-6 102.5-18t94-39 81-66.5 53-105T1386 856q0-121-79-206 37-91-8-204-28-9-81 11t-92 44l-38 24q-93-26-192-26t-192 26q-16-11-42.5-27T578 459.5 492 446q-44 113-7 204-79 85-79 206 0 85 20.5 150t52.5 105 80.5 67 94 39 102.5 18q-40 36-49 103-21 10-45 15t-57 5-65.5-21.5T484 1274q-19-32-48.5-52t-49.5-24l-20-3q-21 0-29 4.5t-5 11.5 9 14 13 12l7 5q22 10 43.5 38t31.5 51l10 23q13 38 44 61.5t67 30 69.5 7 55.5-3.5l23-4q0 38 .5 89t.5 54q0 18-13 30t-40 7q-232-77-378.5-277.5T128 896q0-209 103-385.5T510.5 231 896 128t385.5 103T1561 510.5 1664 896z"/></symbol><symbol viewBox="0 0 536.11 536.11" id="github-social-logo"><path d="M267.75 0c37.128 0 71.91 7.038 104.345 21.114 32.439 14.076 60.793 33.252 85.068 57.528 24.277 24.276 43.453 52.632 57.529 85.068 14.072 32.436 21.111 67.218 21.111 104.346 0 37.127-7.039 71.911-21.111 104.346-14.076 32.438-33.252 60.791-57.529 85.068-24.275 24.275-52.631 43.451-85.068 57.527-32.436 14.076-67.217 21.113-104.345 21.113s-71.91-7.037-104.346-21.111c-32.436-14.076-60.792-33.252-85.068-57.527-24.276-24.277-43.35-52.633-57.222-85.068C7.242 339.967.306 305.184.306 268.056s6.936-71.91 20.808-104.346 32.946-60.792 57.222-85.068 52.632-43.452 85.068-57.528S230.622 0 267.75 0zm0 29.376c-33.048 0-64.056 6.222-93.024 18.666S120.462 77.52 98.838 99.144s-38.658 46.92-51.102 75.888-18.666 59.976-18.666 93.024c0 33.047 6.222 64.055 18.666 93.024 12.444 28.969 29.478 54.264 51.102 75.889 21.624 21.623 46.92 38.658 75.888 51.102 28.968 12.443 59.976 18.666 93.024 18.666s64.056-6.223 93.025-18.666c28.967-12.441 54.264-29.479 75.887-51.102 21.625-21.625 38.658-46.92 51.102-75.889 12.445-28.971 18.666-59.979 18.666-93.024 0-33.046-6.221-64.056-18.666-93.024-12.441-28.968-29.477-54.264-51.102-75.888-21.623-21.624-46.92-38.658-75.887-51.102-28.969-12.444-59.977-18.666-93.025-18.666zm68.544 282.745c25.703-8.979 38.555-25.908 38.555-50.797 0-13.056-2.141-23.358-6.426-30.906-4.283-7.548-11.117-13.77-20.502-18.666-4.488-2.448-9.791-3.876-15.912-4.284-6.119-.408-12.645-.51-19.584-.306-6.936.204-14.277.612-22.031 1.224a295.367 295.367 0 0 1-46.51 0c-7.752-.612-15.096-1.02-22.032-1.224s-13.464-.102-19.584.306-11.424 1.836-15.912 4.284c-9.384 4.896-16.116 11.118-20.196 18.666s-6.12 17.85-6.12 30.906c0 24.889 12.852 41.82 38.556 50.797a393.222 393.222 0 0 0 14.688 3.672c4.488.813 10.098 1.631 16.83 2.445 6.732.816 14.586 1.227 23.562 1.227h26.927c8.568 0 16.32-.408 23.26-1.227 6.936-.814 12.852-1.633 17.748-2.445 5.707-1.225 10.603-2.449 14.683-3.672zm73.44-88.741c0 13.056-1.43 25.398-4.283 37.026-2.857 11.625-8.16 22.135-15.912 31.518-7.752 9.385-18.463 17.137-32.131 23.256-13.668 6.121-31.109 9.996-52.326 11.629a899.705 899.705 0 0 0 12.547 6.119c5.1 2.449 9.486 7.141 13.158 14.076 2.039 4.486 3.365 11.016 3.977 19.584.613 8.566.918 17.34.918 26.314 0 8.979-.102 17.238-.305 24.785-.205 7.549.102 12.141.918 13.771 1.631 3.264 3.979 6.119 7.037 8.566 3.061 2.447 5.611 4.283 7.65 5.508 2.039 1.227 2.65 2.756 1.836 4.592-.816 1.836-3.672 2.959-8.568 3.363-2.447 0-5.508-.404-9.18-1.223-3.672-.816-7.143-2.244-10.404-4.285a29.647 29.647 0 0 1-8.262-7.646c-2.244-3.063-3.365-7.039-3.365-11.938v-50.184c0-5.711-1.326-9.791-3.98-12.24-2.648-2.447-5.402-4.08-8.262-4.895v66.096c0 11.832 1.428 19.584 4.285 23.256 1.223 1.633 2.346 3.367 3.365 5.203s1.633 3.365 1.836 4.59c.205 1.223-.51 1.938-2.145 2.143-1.631.203-4.689-.307-9.18-1.529-8.568-2.039-14.688-6.732-18.359-14.076s-5.508-15.096-5.508-23.256v-64.871H261.63v64.871c0 8.16-1.734 15.912-5.202 23.256s-9.69 12.037-18.666 14.076c-4.488 1.225-7.446 1.732-8.874 1.529-1.428-.203-2.142-.92-2.142-2.143 0-1.225.612-2.754 1.836-4.59s2.448-3.57 3.672-5.203c.816-1.631 1.734-4.488 2.754-8.568 1.02-4.078 1.53-8.975 1.53-14.688v-66.096c-2.856.814-5.508 2.445-7.956 4.896-2.448 2.447-3.672 6.527-3.672 12.24v50.184c0 4.896-1.122 8.873-3.366 11.936-2.244 3.061-4.998 5.607-8.262 7.648-3.264 2.039-6.732 3.471-10.404 4.283-3.672.816-6.732 1.225-9.18 1.225-4.896-.406-7.752-1.527-8.568-3.363s-.204-3.367 1.836-4.59c2.04-1.227 4.59-3.063 7.65-5.512 3.06-2.445 5.406-5.303 7.038-8.564.816-2.041 1.122-7.447.918-16.221-.204-8.771-.306-18.463-.306-29.068-3.264 1.225-7.548 2.041-12.852 2.449-5.304.404-11.22 0-17.748-1.227-11.016-2.041-19.38-5.607-25.092-10.711-5.712-5.1-11.22-13.158-16.524-24.174-2.856-5.303-6.018-9.689-9.486-13.158-3.468-3.467-6.528-6.221-9.18-8.262-2.652-2.039-4.692-3.773-6.12-5.201-1.428-1.428-1.53-2.754-.306-3.979 2.448-2.855 5.814-4.08 10.098-3.674 4.284.408 6.834 1.021 7.65 1.836 4.896 2.039 9.792 6.324 14.688 12.854 4.896 6.531 9.996 12.037 15.3 16.523 2.448 2.039 5.508 4.078 9.18 6.119 3.672 2.039 7.752 3.471 12.24 4.283 4.488.816 9.384.816 14.688 0 5.304-.813 10.608-3.059 15.912-6.729 1.224-5.307 3.162-9.486 5.814-12.549 2.652-3.061 5.508-5.508 8.568-7.344 3.06-1.836 5.916-3.264 8.568-4.285 2.652-1.02 4.794-1.938 6.426-2.754-22.44-1.631-40.8-5.402-55.08-11.318s-25.602-13.467-33.966-22.646c-8.364-9.18-14.076-19.686-17.136-31.519-3.06-11.832-4.59-24.276-4.59-37.332 0-13.464 2.04-25.5 6.12-36.108s9.792-19.992 17.136-28.152c-3.264-9.792-4.386-20.094-3.366-30.906s3.162-20.502 6.426-29.07c15.504.816 28.458 4.08 38.862 9.792 10.404 5.712 17.646 10.404 21.726 14.076 17.544-4.896 35.7-7.344 54.468-7.344h4.284c17.543 0 34.479 2.04 50.795 6.12 4.488-3.672 11.832-8.16 22.033-13.464 10.199-5.304 22.85-8.364 37.943-9.18 3.264 8.16 5.406 17.34 6.426 27.54 1.021 10.2.307 19.992-2.141 29.376 8.16 8.16 14.48 17.85 18.971 29.07 4.489 11.228 6.733 23.978 6.733 38.258zm-143.208-14.076h1.224-1.224zm78.948 47.736c0 5.712-1.527 10.608-4.59 14.688-3.061 4.08-6.834 6.119-11.322 6.119-4.486 0-8.158-2.039-11.016-6.119-2.854-4.081-4.285-8.977-4.285-14.688s1.432-10.608 4.285-14.688c2.855-4.08 6.527-6.12 11.016-6.12s8.264 2.04 11.322 6.12c3.061 4.08 4.59 8.976 4.59 14.688zm-119.952 0c0 5.712-1.53 10.608-4.59 14.688s-6.834 6.119-11.322 6.119-8.16-2.039-11.016-6.119c-2.856-4.081-4.284-8.977-4.284-14.688s1.428-10.608 4.284-14.688 6.528-6.12 11.016-6.12 8.262 2.04 11.322 6.12c3.061 4.08 4.59 8.976 4.59 14.688z" fill="#010002"/></symbol><symbol viewBox="0 0 1792 1792" id="home"><path d="M1472 992v480q0 26-19 45t-45 19h-384v-384H768v384H384q-26 0-45-19t-19-45V992q0-1 .5-3t.5-3l575-474 575 474q1 2 1 6zm223-69l-62 74q-8 9-21 11h-3q-13 0-21-7L896 424l-692 577q-12 8-24 7-13-2-21-11l-62-74q-8-10-7-23.5t11-21.5l719-599q32-26 76-26t76 26l244 204V288q0-14 9-23t23-9h192q14 0 23 9t9 23v408l219 182q10 8 11 21.5t-7 23.5z"/></symbol><symbol viewBox="0 0 64 56.37" id="icon-coffee-cup"><title>Coffee Cup Icon</title><path d="M58.87 17.91h-2.82c.06-.9.13-1.73.16-2.44a2.54 2.54 0 0 0-2.56-2.69H2.57A2.58 2.58 0 0 0 0 15.48C.55 25 4.1 56.37 28.11 56.37c13.59 0 20.64-10.06 24.26-20.51h3.94c.13 0 3.88 0 5.13-2.56A31.32 31.32 0 0 0 64 23a5.59 5.59 0 0 0-5.13-5.09zm-18 31.44a19.48 19.48 0 0 1-12.79 4.45 19.48 19.48 0 0 1-12.79-4.45 29.19 29.19 0 0 1-7.69-10.9c-3.75-8.52-4.77-18.14-5-23.11h51.08c-.29 5-1.31 14.61-5 23.14a29.41 29.41 0 0 1-7.79 10.87zm18.26-17.18c-.42.83-2.13 1.13-2.82 1.13H54.1l3-12.82h1.79A3.13 3.13 0 0 1 61.44 23a29 29 0 0 1-2.31 9.17z"/><path d="M49.48 17.91H6.73a1.3 1.3 0 0 0-1.28 1.41 64.41 64.41 0 0 0 4.49 18.11c4.07 9.29 10 13.81 18.14 13.81s14.07-4.52 18.14-13.81a64.41 64.41 0 0 0 4.48-18.11 1.23 1.23 0 0 0-1.22-1.41zM24.26 7a.55.55 0 0 0 0 .22c0 .16 0 .32.06.48s.13.54.19.8A8.92 8.92 0 0 0 25 9.65c.06.13.13.22.16.29a.4.4 0 0 0 .06.1.33.33 0 0 0 .32.16.33.33 0 0 0 .26-.38s0-.16-.06-.42-.1-.64-.16-1.09a4.8 4.8 0 0 1-.06-.71v-.77a1.32 1.32 0 0 1 .22-.54c.13-.19.32-.38.54-.71A4.09 4.09 0 0 0 26.6 5c0-.1.06-.19.1-.32a1.14 1.14 0 0 0 .06-.32 1.39 1.39 0 0 1 0-.16v-.36a2.47 2.47 0 0 0-.06-.48 12.89 12.89 0 0 0-.35-1.63c-.1-.48-.26-.83-.35-1.12l-.17-.42a.35.35 0 0 0-.32-.19.34.34 0 0 0-.29.35s0 .16.06.42.06.67.13 1.12.1 1 .13 1.54v.77a2.21 2.21 0 0 0-.1.26 1.3 1.3 0 0 1-.16.29c-.16.19-.38.45-.61.77a2.32 2.32 0 0 0-.35 1.19V7zM26.83 7a.55.55 0 0 0 0 .22c0 .16 0 .32.06.48s.13.54.19.8a8.92 8.92 0 0 0 .45 1.12c.06.13.13.22.16.29a.4.4 0 0 0 .06.1.33.33 0 0 0 .32.16.33.33 0 0 0 .26-.38s0-.16-.06-.42-.1-.64-.16-1.09a4.8 4.8 0 0 1-.06-.71v-.74a1.32 1.32 0 0 1 .22-.54c.13-.19.32-.38.54-.71a4.09 4.09 0 0 0 .36-.58c0-.1.06-.19.1-.32a1.14 1.14 0 0 0 .06-.32 1.39 1.39 0 0 1 0-.16v-.36a2.47 2.47 0 0 0-.06-.48 12.89 12.89 0 0 0-.35-1.63c-.13-.48-.29-.83-.38-1.12L28.4.19a.35.35 0 0 0-.32-.19.34.34 0 0 0-.29.35s0 .16.06.42.06.67.13 1.12.1 1 .13 1.54v.77a2.21 2.21 0 0 0-.1.26 1.3 1.3 0 0 1-.16.29c-.16.19-.38.45-.61.77a2.32 2.32 0 0 0-.35 1.19v.16c-.06.05-.06.05-.06.13zM29.39 7a.55.55 0 0 0 0 .22c0 .16 0 .32.06.48s.13.54.19.8a8.92 8.92 0 0 0 .45 1.12c.06.13.13.22.16.29a.4.4 0 0 0 .06.1.33.33 0 0 0 .32.16.33.33 0 0 0 .26-.38s0-.16-.06-.42-.1-.64-.16-1.09a4.8 4.8 0 0 1-.06-.71v-.74a1.32 1.32 0 0 1 .22-.54c.13-.19.32-.38.54-.71a4.09 4.09 0 0 0 .36-.58c0-.1.06-.19.1-.32a1.14 1.14 0 0 0 .06-.32 1.39 1.39 0 0 1 0-.16v-.36a2.47 2.47 0 0 0-.06-.48 12.89 12.89 0 0 0-.35-1.63c-.13-.48-.29-.83-.38-1.12L31 .19a.35.35 0 0 0-.36-.19.34.34 0 0 0-.29.35s0 .16.06.42.06.67.13 1.12.1 1 .13 1.54v.77a2.21 2.21 0 0 0-.1.26 1.3 1.3 0 0 1-.16.29c-.16.19-.38.45-.61.77a2.32 2.32 0 0 0-.35 1.19v.16c-.06.05-.06.05-.06.13z"/></symbol><symbol viewBox="0 0 18 12" id="icon-menu"><path d="M0 0h18v2H0zM0 5h18v2H0zM0 10h18v2H0z"/></symbol><symbol viewBox="0 0 578.952 578.952" id="linked-in-logo-key"><path d="M484.093 342.107c0-19.176-2.449-35.902-7.344-50.184-4.896-14.28-11.631-26.112-20.197-35.496-8.568-9.384-18.666-16.32-30.293-20.808-11.629-4.488-24.379-6.732-38.25-6.732-11.02 0-20.605 1.326-28.768 3.978-8.156 2.652-15.195 6.12-21.111 10.404s-10.914 8.874-14.994 13.77-7.547 9.384-10.404 13.464v-35.496h-83.231c.408 6.936.612 20.4.612 40.392v75.891l-.612 135.252h83.231V345.779c0-3.672.205-7.238.613-10.709.408-3.469 1.223-6.631 2.447-9.484 3.264-7.346 8.262-14.279 14.992-20.811 6.732-6.525 16.016-9.791 27.848-9.791 15.096 0 25.908 5.201 32.436 15.605 6.529 10.402 9.793 24.174 9.793 41.311v134.641h83.232V342.107zM141.372 200.736c14.688 0 26.316-4.284 34.884-12.852 8.568-8.568 12.648-18.768 12.24-30.6 0-12.24-4.182-22.542-12.546-30.906-8.364-8.364-19.686-12.546-33.966-12.546s-25.704 4.182-34.272 12.546-12.852 18.666-12.852 30.906c0 11.832 4.08 22.032 12.24 30.6s19.38 12.852 33.66 12.852h.612zm41.616 34.272H99.756v251.533h83.232V235.008zM561.815 0c4.08 0 7.549 1.326 10.404 3.978 2.854 2.652 4.285 6.018 4.285 10.098v550.801c0 4.08-1.432 7.443-4.285 10.098-2.855 2.652-6.324 3.977-10.404 3.977H17.136c-4.08 0-7.548-1.322-10.404-3.977s-4.284-6.018-4.284-10.098V14.076c0-4.08 1.428-7.446 4.284-10.098S13.056 0 17.136 0h544.679z" fill="#010002"/></symbol><symbol viewBox="0 0 1792 1792" id="linkedin"><path d="M477 625v991H147V625h330zm21-306q1 73-50.5 122T312 490h-2q-82 0-132-49t-50-122q0-74 51.5-122.5T314 148t133 48.5T498 319zm1166 729v568h-329v-530q0-105-40.5-164.5T1168 862q-63 0-105.5 34.5T999 982q-11 30-11 81v553H659q2-399 2-647t-1-296l-1-48h329v144h-2q20-32 41-56t56.5-52 87-43.5T1285 602q171 0 275 113.5t104 332.5z"/></symbol><symbol viewBox="0 0 375.01 52.77" id="logo"><title>logo</title><path d="M12.88 32.86h.77a25.18 25.18 0 0 1 10.09 2.64q16.61 6.15 30.9 6.15h2.46A67.51 67.51 0 0 0 82 36.83a23 23 0 0 1 3.27-1.44h.21q.93.3.93 1.07v.21q0 .9-2.58 1.88a50.52 50.52 0 0 1-10.12 3.39 74.52 74.52 0 0 1-17.89 2.13q-17.95 0-37.12-8a20 20 0 0 0-5.41-.83h-.07q-6.52 0-9.91 4.11a5.91 5.91 0 0 0-1 3 8.13 8.13 0 0 0 3.08 6.4 13.49 13.49 0 0 0 2.88 1.53 1.7 1.7 0 0 1 .37 1.07 1.3 1.3 0 0 1-1.28 1 10.38 10.38 0 0 1-6.15-4.94A11.88 11.88 0 0 1 0 42.3q0-5 5.94-7.93a17 17 0 0 1 6.94-1.51z" fill="#537c8e"/><path d="M95.4 11.39q1 0 1.51 1.72l-.19-.4q0 2.44-2.07 8.17a.17.17 0 0 0 0 .09h.28q2.29 0 11.79-2.81h.51q1.27.11 1.27 1.14t-4.41 2q-7.22 2.06-9.39 2.06-1.27 0-1.83 2.16a83.26 83.26 0 0 1-4.69 9.11q-1.69 2.34-1.69 3v.25l.16.83A16.89 16.89 0 0 0 90.07 44a5.71 5.71 0 0 0 3.5 1.28h.21a8.76 8.76 0 0 0 5.45-2 11.23 11.23 0 0 0 3.8-4A18 18 0 0 1 105 35.9a1.34 1.34 0 0 1 .7-.25h.11a1.18 1.18 0 0 1 1.11 1.21 25 25 0 0 1-3.18 5.63 17.35 17.35 0 0 1-3.8 3.2 11.72 11.72 0 0 1-5.55 1.67h-1.17a7.26 7.26 0 0 1-6.4-3.67 13.89 13.89 0 0 1-3.16-7 2.94 2.94 0 0 1-.09-.83h-.19l.19.4v-1.79a1.1 1.1 0 0 1 0-.3.59.59 0 0 1 0-.21q.07-1.55-.12-1.55l.19.4q0-2.11 2.27-8a1.79 1.79 0 0 0 .05-.49v-.14q0 .14-.3.09-1.25.07-1.63.14-.81-.07-1.42-.07h-1.82q-1.58-.37-1.58-1v-.14q0-.42 1.13-.93l1 .07 4-.21h.91q.9 0 1.93-2.58a21.47 21.47 0 0 0 1.71-3 3 3 0 0 0 .83-1.21q2.76-4 4.18-4zM86.26 33.3l-.19-.4v.76q0-.11-.21-.11a12.66 12.66 0 0 0 1.92-2.87q1.41-2.6 3.11-6.49V24q0-.12-.05-.12h-.33q-1.76.12-1.76.63-2.67 6.31-2.67 7.86-.02.93.18.93zM90 21.66q0-.09.19-.09 1.65 0 1.92-.7a59.38 59.38 0 0 0 2.06-6.38v.09h.14q-3.52 4.34-4.31 7.08z" fill="#537c8e"/><path d="M114.43 30.91a1.09 1.09 0 0 1 1 1.16 27.61 27.61 0 0 1-1.88 3q-2.34 5.34-2.34 8 .18 3 1.81 3.78a1 1 0 0 0 .49.16h.28q1.76 0 4.62-2.29a39.37 39.37 0 0 0 5-6.63q1.07-2.41 2.2-2.41 1.09.3 1.09 1.14V37a38.69 38.69 0 0 1-3.59 5.8 18.41 18.41 0 0 1-5.55 5.4 10.52 10.52 0 0 1-3.78 1.05h-.11q-2.67 0-4.39-3.34a6.65 6.65 0 0 1-.4-2.65 17.22 17.22 0 0 1 1.72-7.12l.46-1.46v-.35a.26.26 0 0 0 .3.3h-.14a9.79 9.79 0 0 0-3 .95 8.09 8.09 0 0 0-2.22 1.53 1.65 1.65 0 0 1-1.62-1.23l.65-1.05a6.27 6.27 0 0 1 2-1.09 57.58 57.58 0 0 0 6.79-2.83z" fill="#537c8e"/><path d="M126.3 35.37h.12q1.11.23 1.11 1.14V37a8.9 8.9 0 0 1-1.71 3.45 7.52 7.52 0 0 0-1.1 3.55q0 .76 1.18.76 3.23 0 9.05-5.24a2.3 2.3 0 0 1 1.09-.93q1.34-1.27 2.88-3h.72q1 .14 1 1.07v.14q0 .58-1.72 2.32a10.41 10.41 0 0 1-2.3 2.11q-6.47 5.92-10.9 5.92-3.39 0-3.39-3.18a13.4 13.4 0 0 1 .95-4q2.14-4.41 2.21-4.41t.81-.19zm4.66-8.3q.9 0 1.07 1.25a2.15 2.15 0 0 1-1.63 2 2.79 2.79 0 0 1-1.14.26q-1.55-.32-1.55-1.49 0-1.41 2.51-2a2.77 2.77 0 0 1 .78-.02z" fill="#537c8e"/><path d="M139.15 28.85q3.66.44 3.66 3.46 0 2.06-2.32 5.13v-.24q1.34 1.49 1.16 1.49v-.33l.69.33s1.55-.62 4.52-1.86a41.43 41.43 0 0 1 5.8-1.46 1.27 1.27 0 0 1 1 1.35 2.27 2.27 0 0 1-2.14 1.16 23.36 23.36 0 0 0-7.7 3l1 3.3.18 1h.11l-.14-.3-.07.14v.05q-.12 1.05.07.63-1 4-2.67 5-1 1.2-4.18 1.79l-.69.33v-.12q.44-.21-.19-.12-1.18-.16-.9 0v-.09q-2.5-1.09-2.5-3.13 0-3.76 5.71-8.7.33-.3.33-.44v-.07a13.91 13.91 0 0 0-2-2.23 9.82 9.82 0 0 1-2.5-4.34q0-.54.07-.54 0 .47-.07.33a5.64 5.64 0 0 1 1-3 3.5 3.5 0 0 1 2.77-1.52zm-2.81 20.34v.53q.14.79.83.79 2 0 4.31-2.3a5.83 5.83 0 0 0 .88-3.41q-.39-2.48-.93-2.48a13.82 13.82 0 0 0-4.11 4.11 4.45 4.45 0 0 0-.98 2.76zm1.48-16.26v.16a4.47 4.47 0 0 0 1.32 2.67h-.26a7.09 7.09 0 0 0 1.62-3.57q0-.74-1.28-1-.95.02-1.41 1.74z" fill="#537c8e"/><path d="M166.69 10.94h.16q1.55.18 1.55 1.49 0 3.5-5.34 12.6a79.09 79.09 0 0 1-5.73 7.79q-3.9 4.73-3.9 5.34a17.73 17.73 0 0 0-.56 3.71q.05.21-.16.21a12.47 12.47 0 0 0 1.78-2.9q1.76-2.18 3.63-2.18 2.43 0 4.06 4.36 1.11 2.51 2.23 3a1.86 1.86 0 0 0 .81.18h.42q1.65 0 3.74-2.09a17.07 17.07 0 0 0 2.3-4.27q.65-2.71 1.78-2.71t1.13 1.13a19.77 19.77 0 0 1-3.46 7.31 7.52 7.52 0 0 1-5.91 2.78q-3.74 0-5.61-5.19-1.18-2.2-1.55-2.2a.48.48 0 0 0-.16-.07h-.07q-1.67 0-3.87 6l-.65 3.55a2.79 2.79 0 0 1-1 .56q-1.39 0-1.56-2.57a25.23 25.23 0 0 1-.28-2.57q0-6.52 1.79-10.05 5.87-14 8.77-17.72a32 32 0 0 1 3.5-4.48 3.46 3.46 0 0 1 2.16-1.01zm-10.53 20.44a.27.27 0 0 0-.3-.26q.35 0 2.81-3.69a47.8 47.8 0 0 0 5.5-9.14 26.85 26.85 0 0 0 1.72-4.57v-.07s0 .07-.05.07a21.32 21.32 0 0 0-2.37 3.11q-3.94 5.77-3.94 6.54-2.51 5.29-3.37 7.77z" fill="#537c8e"/><path d="M180 30.43h.95a3 3 0 0 1 2.9 1.83 36.91 36.91 0 0 1 .93 4 4.68 4.68 0 0 0 4.64 3.08q3.18 0 7-3.69a5.27 5.27 0 0 1 1.09-.18q.83.39.83 1 0 .9-1.71 2.11a14 14 0 0 1-5.84 2.9q-.77.07-1.2.07h-.28a7.07 7.07 0 0 1-6.8-4.27l-.14-.09a23 23 0 0 1-1.12 2.13q-2.65 3.57-5.78 3.57h-.07q-2.39 0-3.64-2.67a4.43 4.43 0 0 1-.25-1.35 9.62 9.62 0 0 1 3-6.17 7.86 7.86 0 0 1 5.49-2.27zm-6.17 8.09a2.07 2.07 0 0 0 1.53 2.23h.35q2.5 0 5.08-5.36a8.18 8.18 0 0 0 .74-2.43v-.42a3.2 3.2 0 0 1-1.09 0q-3.69-.07-5.78 3.67a4.05 4.05 0 0 0-.87 2.31z" fill="#537c8e"/><path d="M197.26 28.85q3.66.44 3.66 3.46 0 2.06-2.32 5.13v-.24q1.34 1.49 1.16 1.49v-.33l.69.33s1.55-.62 4.52-1.86a41.43 41.43 0 0 1 5.8-1.46 1.27 1.27 0 0 1 1 1.35 2.27 2.27 0 0 1-2.14 1.16 23.36 23.36 0 0 0-7.7 3l1 3.3.18 1h.11l-.14-.3-.08.12v.05q-.12 1.05.07.63-1 4-2.67 5-1 1.2-4.18 1.79l-.69.33v-.1q.44-.21-.19-.12-1.18-.16-.9 0v-.09Q192 51.44 192 49.4q0-3.76 5.71-8.7.33-.3.33-.44v-.07A13.91 13.91 0 0 0 196 38a9.82 9.82 0 0 1-2.5-4.34q0-.54.07-.54 0 .47-.07.33a5.64 5.64 0 0 1 1-3 3.5 3.5 0 0 1 2.76-1.6zm-2.81 20.34v.53q.14.79.83.79 2 0 4.31-2.3a5.83 5.83 0 0 0 .88-3.41q-.39-2.48-.93-2.48a13.82 13.82 0 0 0-4.11 4.11 4.45 4.45 0 0 0-.98 2.76zm1.48-16.26v.16a4.47 4.47 0 0 0 1.32 2.67h-.26a7.09 7.09 0 0 0 1.62-3.57q0-.74-1.28-1-.95.02-1.4 1.74z" fill="#537c8e"/><path d="M217.46 30.43h.95a3 3 0 0 1 2.9 1.83 36.91 36.91 0 0 1 .93 4 4.68 4.68 0 0 0 4.64 3.08q3.18 0 7-3.69a5.27 5.27 0 0 1 1.09-.18q.83.39.83 1 0 .9-1.71 2.11a14 14 0 0 1-5.84 2.9q-.77.07-1.2.07h-.28a7.07 7.07 0 0 1-6.8-4.27l-.14-.09a23 23 0 0 1-1.12 2.13q-2.65 3.57-5.78 3.57h-.07q-2.39 0-3.64-2.67a4.43 4.43 0 0 1-.25-1.35 9.62 9.62 0 0 1 3-6.17 7.86 7.86 0 0 1 5.49-2.27zm-6.17 8.09a2.07 2.07 0 0 0 1.53 2.23h.35q2.5 0 5.08-5.36A8.18 8.18 0 0 0 219 33v-.42a3.2 3.2 0 0 1-1.09 0q-3.69-.07-5.78 3.67a4.05 4.05 0 0 0-.84 2.27z" fill="#537c8e"/><path d="M247.8 7.49h.2a1.83 1.83 0 0 1 1.05 1.85v.07q0 3.74-4.61 14.8a78.16 78.16 0 0 1-6.87 12.06 2.76 2.76 0 0 0-1 1.83v.21a7.06 7.06 0 0 0 1.43 3.16 4.44 4.44 0 0 0 3 1.39h.9a14.48 14.48 0 0 0 5.38-2q3.11-2.79 4.36-4.13.88-1.07 1.53-1.07h.25a1.21 1.21 0 0 1 .83 1.11Q254.06 38 249 42.1a13.36 13.36 0 0 1-7.86 2.83q-5.27 0-7-5.82a15.12 15.12 0 0 1-.3-1.78 21.63 21.63 0 0 1 1.78-8.33 10.58 10.58 0 0 1 1.16-3.09A65.3 65.3 0 0 1 242 14a27.9 27.9 0 0 1 2.21-3.52 12 12 0 0 0 1-1.71 3.34 3.34 0 0 1 2.59-1.28zm-11.29 26.26a.83.83 0 0 1 .05.37l-.05.09h-.16a44.32 44.32 0 0 0 3-4.92A86.78 86.78 0 0 0 245 16.72a30.33 30.33 0 0 0 1.39-5.54q-.07-.62-.07-.35h.37q-.54 0-3.69 6.1a100.9 100.9 0 0 0-5.52 13.43q-.58 1.74-.97 3.39z" fill="#537c8e"/><path d="M260.24 30.43h.95a3 3 0 0 1 2.9 1.83 36.91 36.91 0 0 1 .93 4 4.68 4.68 0 0 0 4.64 3.08q3.18 0 7-3.69a5.27 5.27 0 0 1 1.09-.18q.83.39.83 1 0 .9-1.71 2.11a14 14 0 0 1-5.84 2.9q-.77.07-1.2.07h-.28a7.07 7.07 0 0 1-6.8-4.27l-.14-.09a23 23 0 0 1-1.12 2.13q-2.65 3.57-5.78 3.57h-.07q-2.39 0-3.64-2.67a4.43 4.43 0 0 1-.25-1.35 9.62 9.62 0 0 1 3-6.17 7.86 7.86 0 0 1 5.49-2.27zm-6.17 8.09a2.07 2.07 0 0 0 1.53 2.23h.4q2.5 0 5.08-5.36a8.18 8.18 0 0 0 .74-2.43v-.42a3.2 3.2 0 0 1-1.09 0q-3.69-.07-5.78 3.67a4.05 4.05 0 0 0-.88 2.31z" fill="#537c8e"/><path d="M277.54 28.85q3.66.44 3.66 3.46 0 2.06-2.32 5.13v-.24q1.34 1.49 1.16 1.49v-.33l.69.33s1.55-.62 4.52-1.86a41.43 41.43 0 0 1 5.8-1.46 1.27 1.27 0 0 1 1 1.35 2.27 2.27 0 0 1-2.14 1.16 23.36 23.36 0 0 0-7.7 3l1 3.3.18 1h.11l-.14-.3-.07.14v.05q-.12 1.05.07.63-1 4-2.67 5-1 1.2-4.18 1.79l-.69.33v-.12q.44-.21-.19-.12-1.18-.16-.9 0v-.09q-2.5-1.09-2.5-3.13 0-3.76 5.71-8.7.33-.3.33-.44v-.07a13.91 13.91 0 0 0-2-2.23 9.82 9.82 0 0 1-2.5-4.34q0-.54.07-.54 0 .47-.07.33a5.64 5.64 0 0 1 1-3 3.5 3.5 0 0 1 2.77-1.52zm-2.81 20.34v.53q.14.79.83.79 2 0 4.31-2.3a5.83 5.83 0 0 0 .88-3.41q-.39-2.48-.93-2.48a13.82 13.82 0 0 0-4.11 4.11 4.45 4.45 0 0 0-.98 2.76zm1.48-16.26v.16a4.47 4.47 0 0 0 1.32 2.67h-.26a7.09 7.09 0 0 0 1.62-3.57q0-.74-1.28-1-.95.02-1.41 1.74z" fill="#537c8e"/><path d="M365.5 15.12h.63a8.84 8.84 0 0 1 6.94 3 9.55 9.55 0 0 1 1.93 5.95V25q0 3.76-3.81 7a18.71 18.71 0 0 1-4.48 2.58q-8.19 3.41-21.11 3.41A118.74 118.74 0 0 1 325.7 36a74.08 74.08 0 0 0-12.16-.91 92.57 92.57 0 0 0-23.2 2.9q-1.14-.32-1.14-1.16v-.35q0-.91 3.45-1.49a94 94 0 0 1 20.9-2.32 103 103 0 0 1 18.14 1.83 100.46 100.46 0 0 0 13.64 1h.67q16.19 0 23.71-5.4 3-2.5 3-5.48 0-4.89-3.46-6.49a10.12 10.12 0 0 0-3.55-.67q-.32 0-2.94.28-.9 0-1-1.34t3.74-1.28z" fill="#537c8e"/><path d="M198.79 16.14a2.45 2.45 0 0 0-2.12 2.45 2.6 2.6 0 0 0 3 2.35 2 2 0 0 0 1.83-2.33c-.07-1.44-1.5-2.75-2.71-2.47zm19.11 1.05c-1.13-.06-2.71 1.73-2.55 2.87a.92.92 0 0 0 .81.82c1.13.15 2.53-1.5 2.47-2.88a.75.75 0 0 0-.73-.81zM152.11 6.13a1 1 0 0 0-1.36.54c-.62 1.5.22 2.29 1.93 2.89.64-1.42.62-2.56-.57-3.43zm25.69 12a1.83 1.83 0 0 0-1.59 2.07 1.09 1.09 0 0 0 1.11 1c1.2-.07 1.57-.92 1.57-1.95-.21-.59-.52-1.25-1.09-1.14zM134.55 7.46c-1-.06-1.4.63-1.48 1.56.23.8.54 1.59 1.54 1.62S136 9.89 136 9a1.43 1.43 0 0 0-1.45-1.54zM243.85.94c-1.25 1.73.37 2.15 1.32 3.08 1-2.85 1-2.87-1.32-3.08zm0 0l.06-.08zm-54 4.64c-.66.08-.83.67-.72 1.25A1.33 1.33 0 0 0 190.86 8c.6-.14.94-.54.79-1.37a1.62 1.62 0 0 0-1.85-1.05zm64.7 7.32a1.3 1.3 0 0 0-1.25 1.42 1.21 1.21 0 0 0 1.43 1.19 1.33 1.33 0 0 0 1.27-1.4 1.3 1.3 0 0 0-1.5-1.22zm-23.78-4c-.1-.6-.39-1-1-1a1.16 1.16 0 0 0-1.08 1 1 1 0 0 0 .85 1.14c.78.19 1.03-.45 1.18-1.13zm-63 21.26a.91.91 0 0 0-1 1c0 .52.31 1.08 1 .89s.76-.66.73-1.23-.33-.65-.74-.66zM181.16 0a.69.69 0 0 0-.53.91.75.75 0 0 0 .92.48c.37-.19.71-.42.52-.9a.73.73 0 0 0-.91-.49zm133.55 42a2.49 2.49 0 0 0-2.31 2.34 2.63 2.63 0 0 0 2.85 2.66 2.07 2.07 0 0 0 2-2.24c.03-1.49-1.25-2.93-2.54-2.76zM343 44.51c-1.13-.15-2.85 1.56-2.77 2.74a.94.94 0 0 0 .75.9c1.13.24 2.65-1.34 2.69-2.75a.76.76 0 0 0-.67-.89zm-82-22.3c-.51-.43-1.18 0-1.41.45-.73 1.48 0 2.35 1.72 3.09.69-1.39.78-2.59-.31-3.54zm25.52 1.51a1.86 1.86 0 0 0-1.75 2 1.1 1.1 0 0 0 1 1.13c1.21 0 1.64-.82 1.72-1.87-.17-.62-.44-1.29-1.01-1.26zm-55.6 4.68c-1-.13-1.45.54-1.6 1.49.18.83.42 1.67 1.42 1.77s1.44-.67 1.54-1.54a1.46 1.46 0 0 0-1.36-1.72zM331 19.88c-1.38 1.67.21 2.22 1.09 3.24 1.25-2.84 1.26-2.86-1.09-3.24zm0 0l.06-.08zm-24.51 6.71c-.67 0-.89.62-.82 1.22a1.34 1.34 0 0 0 1.69 1.36c.61-.1 1-.48.9-1.34a1.63 1.63 0 0 0-1.78-1.25zm54.36 16.27a1.32 1.32 0 0 0-1.36 1.35 1.23 1.23 0 0 0 1.34 1.32 1.35 1.35 0 0 0 1.37-1.34c-.11-.81-.55-1.36-1.37-1.34zM346.3 26a1.17 1.17 0 0 0-1.16 1 1 1 0 0 0 .77 1.22c.87.18 1.16-.45 1.36-1.14-.05-.68-.27-1.14-.97-1.08zM264 43.67a.93.93 0 0 0-1.05 1c0 .54.23 1.12 1 1s.81-.61.82-1.2-.38-.76-.77-.8zm34.24-19.39a.71.71 0 0 0-.6.89.75.75 0 0 0 .89.55c.38-.16.74-.37.59-.88a.73.73 0 0 0-.9-.55zM80.91 43.78c-1.13-.15-2.85 1.56-2.77 2.74a.94.94 0 0 0 .75.9c1.13.24 2.65-1.34 2.69-2.75a.76.76 0 0 0-.67-.89zM26 22.59c-.51-.43-1.18 0-1.41.45-.73 1.48 0 2.35 1.72 3.09.76-1.4.83-2.59-.31-3.54zM50.32 31a1.86 1.86 0 0 0-1.75 2 1.1 1.1 0 0 0 1 1.13c1.21 0 1.64-.82 1.72-1.87-.13-.64-.4-1.31-.97-1.26zM7 27.66c-1-.13-1.45.54-1.6 1.49.18.83.42 1.67 1.42 1.77s1.44-.67 1.54-1.54A1.46 1.46 0 0 0 7 27.66zm110.1-5.53l.06-.08zm0 0c-1.38 1.67.21 2.22 1.09 3.24 1.26-2.83 1.26-2.84-1.05-3.23zm-45.19 1.59c-.67 0-.89.62-.82 1.22a1.34 1.34 0 0 0 1.69 1.36c.61-.1 1-.48.9-1.34a1.63 1.63 0 0 0-1.77-1.24zm65-1.6a1.32 1.32 0 0 0-1.36 1.35 1.23 1.23 0 0 0 1.34 1.32 1.35 1.35 0 0 0 1.37-1.34c-.07-.81-.51-1.35-1.32-1.33zm-34.51 2.36a1.29 1.29 0 0 0-1.16 1.23 1.27 1.27 0 0 0 .77 1.56c.87.23 1.16-.57 1.36-1.45-.04-.82-.31-1.37-.97-1.34zM40.55 46.15a.93.93 0 0 0-1.05 1c0 .54.23 1.12 1 1s.81-.61.82-1.2-.32-.77-.77-.8zm13.78-22.6a.71.71 0 0 0-.6.89.75.75 0 0 0 .89.55c.38-.16.74-.37.59-.88a.73.73 0 0 0-.88-.56z" fill="#537c8e"/></symbol><symbol viewBox="0 0 483.98 121.57" id="logo-tagline"><title>Logo</title><path d="M250.5 18.49a2.81 2.81 0 0 0-2.43 2.81 3 3 0 0 0 3.45 2.7 2.33 2.33 0 0 0 2.1-2.67c-.1-1.66-1.69-3.16-3.12-2.84zm21.89 1.2c-1.3-.07-3.1 2-2.92 3.29a1.06 1.06 0 0 0 .93.94c1.3.17 2.9-1.72 2.83-3.3a.86.86 0 0 0-.83-.93zM197 7a1.09 1.09 0 0 0-1.56.62c-.71 1.72.25 2.62 2.21 3.31.76-1.6.74-2.93-.65-3.93zm18 13.72a2.1 2.1 0 0 0-1.82 2.37 1.24 1.24 0 0 0 1.27 1.18c1.37-.08 1.8-1.06 1.79-2.23-.24-.66-.59-1.39-1.24-1.3zM176.91 8.55c-1.16-.06-1.6.73-1.69 1.79.27.92.62 1.83 1.76 1.86s1.59-.87 1.63-1.85a1.64 1.64 0 0 0-1.7-1.8zm125.17-7.47l.06-.09zm0 0c-1.43 2 .42 2.47 1.51 3.52 1.19-3.26 1.19-3.28-1.47-3.52zm-61.87 5.31c-.76.09-1 .77-.83 1.43a1.53 1.53 0 0 0 2 1.38c.68-.16 1.08-.62.91-1.57a1.86 1.86 0 0 0-2.08-1.24zm74.12 8.38a1.49 1.49 0 0 0-1.43 1.62 1.39 1.39 0 0 0 1.63 1.36 1.52 1.52 0 0 0 1.47-1.61 1.49 1.49 0 0 0-1.67-1.37zm-28.44-5.66a1.33 1.33 0 0 0-1.24 1.18 1.09 1.09 0 0 0 1 1.3c1 .13 1.29-.6 1.46-1.38-.11-.7-.48-1.21-1.22-1.1zm-74.37 18.57a1 1 0 0 0-1.12 1.17c0 .6.36 1.23 1.17 1s.87-.75.84-1.41-.41-.75-.89-.76zM230.3 0a.8.8 0 0 0-.6 1 .86.86 0 0 0 1.05.55c.42-.21.81-.48.6-1A.83.83 0 0 0 230.3 0zm153 48.1a2.86 2.86 0 0 0-2.64 2.68 3 3 0 0 0 3.26 3 2.37 2.37 0 0 0 2.3-2.57c.02-1.64-1.46-3.29-2.92-3.07zm21.87 2.9c-1.29-.17-3.26 1.79-3.18 3.14a1.08 1.08 0 0 0 .86 1c1.29.27 3-1.54 3.09-3.15a.88.88 0 0 0-.77-.99zm-74.66-18.53c-.58-.49-1.35 0-1.61.51-.84 1.7.05 2.69 2 3.54.83-1.59.9-2.96-.39-4.05zm17 15.33a2.13 2.13 0 0 0-2 2.28 1.26 1.26 0 0 0 1.19 1.3c1.38 0 1.88-.94 2-2.14-.21-.71-.52-1.49-1.18-1.44zm-37.3-15.26c-1.16-.15-1.66.62-1.83 1.7.2 1 .49 1.91 1.63 2s1.66-.77 1.77-1.76a1.67 1.67 0 0 0-1.56-1.95zm126.14 1.69c-1.58 1.91.24 2.55 1.25 3.71 1.4-3.25 1.4-3.27-1.24-3.71zm0 0l.07-.09zm-62.48.77c-.77 0-1 .71-.94 1.39a1.54 1.54 0 0 0 1.94 1.61c.7-.12 1.13-.55 1-1.53a1.87 1.87 0 0 0-2-1.47zm73.72 14.05a1.51 1.51 0 0 0-1.59 1.59 1.41 1.41 0 0 0 1.54 1.51 1.54 1.54 0 0 0 1.57-1.53c-.11-.92-.58-1.55-1.52-1.53zm-28.1-7.85a1.34 1.34 0 0 0-1.33 1.11 1.12 1.12 0 0 0 .88 1.4c1 .21 1.33-.52 1.56-1.3-.06-.71-.36-1.24-1.11-1.21zm-76 13.41a1.06 1.06 0 0 0-1.21 1.11c0 .61.27 1.28 1.1 1.13s.93-.7.94-1.37-.32-.83-.81-.87zm20.89-26.79a.81.81 0 0 0-.68 1 .86.86 0 0 0 1 .63c.44-.19.85-.42.68-1a.84.84 0 0 0-.97-.63zM103.9 47.29a2.86 2.86 0 0 0-2.64 2.71 3 3 0 0 0 3.26 3 2.37 2.37 0 0 0 2.3-2.57c.02-1.71-1.47-3.35-2.92-3.14zm21.87 2.85c-1.29-.17-3.26 1.79-3.18 3.14a1.08 1.08 0 0 0 .86 1c1.29.27 3-1.54 3.09-3.15a.88.88 0 0 0-.77-.98zM51.11 31.63c-.58-.49-1.35 0-1.61.51-.84 1.7.05 2.69 2 3.54.83-1.6.9-2.96-.39-4.05zM68.12 47a2.13 2.13 0 0 0-2 2.28 1.26 1.26 0 0 0 1.19 1.3c1.38 0 1.88-.94 2-2.14-.23-.76-.53-1.53-1.19-1.44zm-37.3-15.31c-1.16-.15-1.66.62-1.83 1.7.2 1 .49 1.91 1.63 2s1.66-.77 1.77-1.76a1.67 1.67 0 0 0-1.57-1.94zM157 33.38c-1.58 1.91.24 2.55 1.25 3.71 1.36-3.25 1.37-3.26-1.25-3.71zm0 0l.07-.09zm-62.45.82c-.77 0-1 .71-.94 1.39a1.54 1.54 0 0 0 1.94 1.56c.7-.12 1.13-.55 1-1.53a1.87 1.87 0 0 0-2.08-1.43zm73.72 14.05a1.51 1.51 0 0 0-1.56 1.55 1.41 1.41 0 0 0 1.54 1.51 1.54 1.54 0 0 0 1.57-1.53c-.19-.93-.7-1.55-1.63-1.53zm-28.11-7.89a1.34 1.34 0 0 0-1.33 1.11 1.12 1.12 0 0 0 .88 1.4c1 .21 1.33-.52 1.56-1.3-.13-.72-.43-1.24-1.19-1.21zm-76 13.41a1.06 1.06 0 0 0-1.21 1.11c0 .61.27 1.28 1.1 1.13s.93-.7.94-1.37-.41-.83-.88-.87zM85 27a.81.81 0 0 0-.68 1 .86.86 0 0 0 1 .63c.44-.19.85-.42.68-1a.84.84 0 0 0-1-.63zM34 55.76h1q5.63 0 13.29 3.47 21.88 8.1 40.7 8.1h3.21A88.91 88.91 0 0 0 125 61a30.33 30.33 0 0 1 4.31-1.9h.28q1.23.39 1.23 1.41v.28q0 1.18-3.4 2.48-3.89 2.06-13.33 4.47a98.13 98.13 0 0 1-23.57 2.8Q66.9 70.53 41.64 60a26.3 26.3 0 0 0-7.13-1.09h-.09q-8.59 0-13.06 5.42a7.79 7.79 0 0 0-1.27 4 10.71 10.71 0 0 0 4.05 8.43 17.75 17.75 0 0 0 3.8 2 2.24 2.24 0 0 1 .49 1.41 1.71 1.71 0 0 1-1.69 1.32A13.67 13.67 0 0 1 18.63 75 15.64 15.64 0 0 1 17 68.2q0-6.53 7.82-10.44a22.36 22.36 0 0 1 9.18-2z"/><path d="M142.62 27.5q1.27 0 2 2.27l-.26-.53q0 3.22-2.73 10.76a.22.22 0 0 0 0 .12h.37q3 0 15.53-3.7h.67q1.67.14 1.67 1.5t-5.81 2.59q-9.51 2.71-12.36 2.71-1.67 0-2.41 2.85a109.75 109.75 0 0 1-6.18 12q-2.22 3.08-2.22 3.94v.32l.21 1.09a22.23 22.23 0 0 0 4.51 7.06 7.52 7.52 0 0 0 4.61 1.69h.28a11.54 11.54 0 0 0 7.18-2.68 14.79 14.79 0 0 0 5-5.25 23.71 23.71 0 0 1 2.55-4.42 1.77 1.77 0 0 1 .93-.32h.14a1.55 1.55 0 0 1 1.46 1.6q-.69 2.29-4.19 7.41a22.87 22.87 0 0 1-5 4.21 15.44 15.44 0 0 1-7.32 2.2h-1.48a9.56 9.56 0 0 1-8.45-4.92q-3-3.12-4.17-9.21a3.89 3.89 0 0 1-.12-1.09h-.26l.26.53v-2.34a1.47 1.47 0 0 1 0-.39.77.77 0 0 1 0-.28q.09-2-.16-2l.25.53q0-2.78 3-10.51a2.36 2.36 0 0 0 .07-.65v-.19c0 .12-.13.16-.39.12q-1.64.09-2.15.19-1.06-.09-1.87-.09h-2.38q-2.08-.49-2.08-1.32v-.18q0-.56 1.48-1.23l1.32.09q4.93-.28 5.28-.28h1.2q1.18 0 2.55-3.4a28.24 28.24 0 0 0 2.25-4 4 4 0 0 0 1.09-1.6q3.61-5.2 5.51-5.2zm-12 28.84l-.26-.53v1c0-.09-.11-.14-.28-.14q.49-.25 2.52-3.77 1.85-3.42 4.1-8.54v-.26c0-.11 0-.16-.07-.16h-.44q-2.32.16-2.31.83-3.52 8.31-3.52 10.35-.03 1.22.22 1.22zM135.51 41q0-.12.25-.12 2.18 0 2.52-.93A78.41 78.41 0 0 0 141 31.6v.12h.18q-4.62 5.69-5.67 9.28z"/><path d="M167.69 53.19a1.43 1.43 0 0 1 1.37 1.53 36.3 36.3 0 0 1-2.48 4q-3.08 7-3.08 10.53.23 4 2.38 5a1.36 1.36 0 0 0 .65.21h.37q2.31 0 6.09-3a51.84 51.84 0 0 0 6.55-8.73q1.41-3.17 2.89-3.17 1.43.39 1.44 1.5v.28q-.39 1.3-4.72 7.64a24.25 24.25 0 0 1-7.31 7.02 13.85 13.85 0 0 1-5 1.39h-.14q-3.52 0-5.79-4.4a8.76 8.76 0 0 1-.53-3.49 22.67 22.67 0 0 1 2.27-9.38l.6-1.92v-.46a.35.35 0 0 0 .39.39h-.19a12.89 12.89 0 0 0-4 1.25 10.67 10.67 0 0 0-3 2 2.18 2.18 0 0 1-2.13-1.62l.86-1.39a8.25 8.25 0 0 1 2.64-1.44 75.77 75.77 0 0 0 8.94-3.73z"/><path d="M183.32 59.07h.16q1.46.3 1.46 1.5v.65q-1.18 3.57-2.25 4.54a9.9 9.9 0 0 0-1.46 4.72q0 1 1.55 1 4.26 0 11.92-6.9a3 3 0 0 1 1.44-1.23q1.76-1.67 3.8-4h.95q1.37.19 1.37 1.41v.19q0 .76-2.27 3.06a13.73 13.73 0 0 1-3 2.78q-8.52 7.8-14.35 7.8-4.47 0-4.47-4.19a17.64 17.64 0 0 1 1.25-5.32q2.82-5.81 2.92-5.81t.98-.2zm6.14-10.93q1.18 0 1.41 1.64a2.83 2.83 0 0 1-2.15 2.69 3.67 3.67 0 0 1-1.5.35q-2-.42-2-2 0-1.85 3.31-2.59a3.66 3.66 0 0 1 .92-.08z"/><path d="M200.24 50.49q4.81.58 4.81 4.56 0 2.71-3.06 6.76v-.32q1.76 2 1.53 2V63l.9.44q.09 0 5.95-2.45a54.6 54.6 0 0 1 7.63-1.92 1.67 1.67 0 0 1 1.3 1.78 3 3 0 0 1-2.82 1.53 30.77 30.77 0 0 0-10.14 3.91l1.37 4.35.23 1.27h.14l-.19-.39-.09.19v.07q-.16 1.39.09.83-1.34 5.23-3.52 6.57-1.37 1.57-5.51 2.36L198 82v-.1q.58-.28-.26-.16-1.55-.21-1.18 0v-.12q-3.29-1.44-3.29-4.12 0-5 7.52-11.46.44-.39.44-.58v-.09a18.34 18.34 0 0 0-2.64-2.94q-3-3.5-3.29-5.72 0-.72.09-.72 0 .62-.09.44a7.43 7.43 0 0 1 1.32-4 4.61 4.61 0 0 1 3.62-1.94zm-3.7 26.78V78q.18 1 1.09 1 2.69 0 5.67-3a7.68 7.68 0 0 0 1.16-4.49q-.51-3.26-1.23-3.26-2.22 1.11-5.42 5.42a5.86 5.86 0 0 0-1.27 3.6zm1.94-21.41v.21a5.89 5.89 0 0 0 1.74 3.52h-.35q2.13-3 2.13-4.7 0-1-1.69-1.27-1.23-.03-1.83 2.24z"/><path d="M236.52 26.9h.21q2 .23 2 2 0 4.61-7 16.6a104.13 104.13 0 0 1-7.55 10.25q-5.14 6.23-5.14 7a23.32 23.32 0 0 0-.74 4.88q.07.28-.21.28a16.41 16.41 0 0 0 2.34-3.82q2.38-2.85 4.84-2.85 3.19 0 5.35 5.74 1.46 3.31 2.94 3.94a2.44 2.44 0 0 0 1.07.23h.56q2.18 0 4.93-2.75a22.5 22.5 0 0 0 3-5.63q.86-3.56 2.34-3.57t1.48 1.48a26 26 0 0 1-4.56 9.63 9.91 9.91 0 0 1-7.81 3.69q-4.93 0-7.38-6.83-1.55-2.89-2-2.89a.63.63 0 0 0-.21-.09h-.09q-2.2 0-5.09 7.92l-.86 4.68a3.68 3.68 0 0 1-1.27.74q-1.83 0-2.06-3.38a33.08 33.08 0 0 1-.37-3.38q0-8.59 2.36-13.24 7.73-18.38 11.55-23.33a42.25 42.25 0 0 1 4.61-5.9 4.56 4.56 0 0 1 2.76-1.4zm-13.87 26.92a.36.36 0 0 0-.39-.35q.46 0 3.7-4.86a63 63 0 0 0 7.25-12 35.44 35.44 0 0 0 2.27-6v-.09c0 .06 0 .09-.07.09a28 28 0 0 0-3.13 4.1q-5.19 7.59-5.19 8.61-3.31 7-4.44 10.23z"/><path d="M254 52.57h1.25a3.91 3.91 0 0 1 3.81 2.43 48.92 48.92 0 0 1 1.23 5.23 6.16 6.16 0 0 0 6.11 4.05q4.19 0 9.26-4.86a7 7 0 0 1 1.44-.23q1.09.51 1.09 1.32 0 1.18-2.25 2.78a18.37 18.37 0 0 1-7.68 3.82c-.68.06-1.2.09-1.57.09h-.37a9.3 9.3 0 0 1-9-5.63l-.18-.12a30.74 30.74 0 0 1-1.48 2.8q-3.5 4.7-7.62 4.7H248q-3.15 0-4.79-3.52a5.85 5.85 0 0 1-.32-1.78q.14-4.05 4-8.13a10.36 10.36 0 0 1 7.11-2.95zm-8.13 10.65a2.73 2.73 0 0 0 2 2.94h.46q3.29 0 6.69-7.06a10.78 10.78 0 0 0 1-3.2v-.56a4.19 4.19 0 0 1-1.44 0q-4.86-.09-7.62 4.84a5.34 5.34 0 0 0-1.09 3.04z"/><path d="M276.77 50.49q4.82.58 4.82 4.56 0 2.71-3.06 6.76v-.32q1.76 2 1.53 2V63l.9.44q.09 0 6-2.45a54.6 54.6 0 0 1 7.64-1.92 1.67 1.67 0 0 1 1.3 1.78 3 3 0 0 1-2.9 1.54 30.76 30.76 0 0 0-10.14 3.91l1.37 4.35.23 1.27h.14l-.18-.39-.09.19v.07q-.16 1.39.09.83-1.34 5.23-3.52 6.57-1.37 1.57-5.51 2.36l-.9.44v-.09q.58-.28-.26-.16-1.55-.21-1.18 0v-.12q-3.29-1.44-3.29-4.12 0-5 7.52-11.46.44-.39.44-.58v-.09a18.34 18.34 0 0 0-2.64-2.94q-3-3.5-3.29-5.72 0-.72.09-.72 0 .62-.09.44a7.43 7.43 0 0 1 1.32-4 4.61 4.61 0 0 1 3.66-1.94zm-3.7 26.78V78q.18 1 1.09 1 2.68 0 5.67-3a7.68 7.68 0 0 0 1.17-4.52q-.51-3.26-1.23-3.26-2.22 1.11-5.42 5.42a5.86 5.86 0 0 0-1.28 3.63zM275 55.86v.21a5.89 5.89 0 0 0 1.74 3.52h-.35q2.13-3 2.13-4.7 0-1-1.69-1.27-1.22-.03-1.83 2.24z"/><path d="M303.37 52.57h1.25a3.91 3.91 0 0 1 3.82 2.43 48.51 48.51 0 0 1 1.23 5.23 6.17 6.17 0 0 0 6.11 4.05q4.19 0 9.26-4.86a7 7 0 0 1 1.44-.23q1.09.51 1.09 1.32 0 1.18-2.25 2.78a18.38 18.38 0 0 1-7.69 3.82q-1 .09-1.57.09h-.37a9.3 9.3 0 0 1-9-5.63l-.19-.12a29.91 29.91 0 0 1-1.48 2.8q-3.5 4.7-7.62 4.7h-.09q-3.15 0-4.79-3.52a5.85 5.85 0 0 1-.32-1.78q.14-4.05 4-8.13a10.36 10.36 0 0 1 7.17-2.95zm-8.13 10.65a2.73 2.73 0 0 0 2 2.94h.46q3.29 0 6.69-7.06a10.78 10.78 0 0 0 1-3.2v-.56a4.2 4.2 0 0 1-1.44 0q-4.86-.09-7.62 4.84a5.35 5.35 0 0 0-1.09 3.04z"/><path d="M343.33 22.36h.3a2.4 2.4 0 0 1 1.37 2.43v.09q0 4.93-6.06 19.49-2.36 5.74-9.05 15.88a3.64 3.64 0 0 0-1.27 2.41v.28q0 1.34 1.81 4.17a5.85 5.85 0 0 0 4 1.83h1.18q2.43-.14 7.08-2.69 4.1-3.68 5.74-5.44 1.16-1.41 2-1.41h.32a1.59 1.59 0 0 1 1.09 1.46q-.3 1.64-6.9 7.08a17.6 17.6 0 0 1-10.35 3.73q-6.94 0-9.26-7.66a19.86 19.86 0 0 1-.39-2.34 28.52 28.52 0 0 1 2.31-11 13.94 13.94 0 0 1 1.53-4.07 85.89 85.89 0 0 1 6.91-15.6 36.8 36.8 0 0 1 2.92-4.63A15.84 15.84 0 0 0 340 24.1a4.39 4.39 0 0 1 3.33-1.74zm-14.86 34.58a1.12 1.12 0 0 1 .07.49l-.07.12h-.21a58.61 58.61 0 0 0 4-6.48 114.25 114.25 0 0 0 7.36-16.55 39.93 39.93 0 0 0 1.83-7.29q-.09-.81-.09-.46h.49q-.72 0-4.86 8a132.92 132.92 0 0 0-7.27 17.69q-.72 2.31-1.25 4.48z"/><path d="M359.72 52.57h1.25a3.91 3.91 0 0 1 3.82 2.43 48.92 48.92 0 0 1 1.21 5.26 6.16 6.16 0 0 0 6.11 4.05q4.19 0 9.26-4.86a7 7 0 0 1 1.44-.23q1.09.51 1.09 1.32 0 1.18-2.25 2.78a18.37 18.37 0 0 1-7.65 3.81c-.68.06-1.2.09-1.57.09H372a9.3 9.3 0 0 1-9-5.63l-.18-.12a30.74 30.74 0 0 1-1.48 2.8q-3.5 4.7-7.62 4.7h-.09q-3.15 0-4.79-3.52a5.85 5.85 0 0 1-.32-1.78q.14-4.05 4-8.13a10.35 10.35 0 0 1 7.2-2.97zm-8.12 10.65a2.73 2.73 0 0 0 2 2.94h.46q3.29 0 6.69-7.06a10.78 10.78 0 0 0 1-3.2v-.56a4.19 4.19 0 0 1-1.44 0q-4.86-.09-7.62 4.84a5.34 5.34 0 0 0-1.1 3.04z"/><path d="M382.5 50.49q4.82.58 4.82 4.56 0 2.71-3.06 6.76v-.32q1.76 2 1.53 2V63l.9.44q.09 0 6-2.45a54.6 54.6 0 0 1 7.64-1.92 1.67 1.67 0 0 1 1.3 1.78 3 3 0 0 1-2.82 1.53 30.76 30.76 0 0 0-10.14 3.91l1.33 4.36.23 1.27h.14l-.18-.39-.09.19v.07q-.16 1.39.09.83-1.34 5.23-3.52 6.57-1.37 1.57-5.51 2.36l-.9.44v-.09q.58-.28-.26-.16-1.55-.21-1.18 0v-.12q-3.29-1.44-3.29-4.12 0-5 7.52-11.46.44-.39.44-.58v-.09a18.34 18.34 0 0 0-2.64-2.94q-3-3.5-3.29-5.72 0-.72.09-.72 0 .62-.09.44a7.43 7.43 0 0 1 1.32-4 4.61 4.61 0 0 1 3.62-1.94zm-3.7 26.78V78q.18 1 1.09 1 2.68 0 5.67-3a7.68 7.68 0 0 0 1.16-4.49q-.51-3.26-1.23-3.26-2.22 1.11-5.42 5.42a5.86 5.86 0 0 0-1.28 3.6zm1.94-21.41v.21a5.89 5.89 0 0 0 1.74 3.52h-.35q2.13-3 2.13-4.7 0-1-1.69-1.27-1.23-.03-1.83 2.24z"/><path d="M463.36 46.32q2.45 0 3.54 4.54a9.68 9.68 0 0 1 .09 1.32q0 4.61-5.74 8.26a22.17 22.17 0 0 1-5.53 2.2 38.51 38.51 0 0 1-5.72 1v.26q.6-.35-1.11-.16v.18l.53-.25h-2.08q.49 0 .49.44l-.9-.44h-.32q.49 0 .49.44l-.9-.44q.49 0 .49.44l-.9-.44H444h.16-1.25v.25l.39-.18.39.18V64a7.7 7.7 0 0 1-.86-.44 37.73 37.73 0 0 1-4.33-.28v.09q-4.61-.61-14.5-2.37c.35 0 .53.06.53.19l-2.5-.37v.07q-1.9-.23-1.9-.25 1.06 0 1.06.21l-1.09-.21h-.79c-.45 0-.67 0-.67-.09.71 0 1.07.05 1.07.16l-1.67-.19v.37a7.61 7.61 0 0 1-.86-.44q-3.15-.09-4.1-.09v.25l.53-.25h-2.11q-5.07 0-7.38 1.07a15.78 15.78 0 0 1-4.21 1.07q-1.3-.51-1.3-1.5v-.3q0-1.39 6-2.78a48.2 48.2 0 0 1 6.44-.81v-.21l-.53.26h1.81q-.49 0-.49-.44l.9.44c-.33 0-.49-.15-.49-.44l.76.37.18-.09.19.09.18-.09.18.09.26-.09.16.09a8.08 8.08 0 0 1 1 0v.09q-1.06 0-1.06-.19l1.27.19h.51q1 0 3.54.12v.07q-1.06 0-1.06-.14 3.63.32 3.15.14a11.18 11.18 0 0 0 2.22.51v-.09q7.41 1.11 11.85 2v-.09l1.48.28v-.12a22.49 22.49 0 0 0 4.49.51q0 .09-1.06.09v-.21a23.39 23.39 0 0 0 2.87.35v-.39l.9.44h4.26l1.27-.19v-.16l-.53.25h.83l1.27-.18v.09a24.91 24.91 0 0 0 6.11-1.53q6-2.82 6-6.78v-.28A8.8 8.8 0 0 0 462 48v-.35q.48-1.33 1.36-1.33z"/></symbol><symbol viewBox="0 0 123.03 30" id="logomark"><title>logomark</title><path d="M9.34 15.56h.56a18.26 18.26 0 0 1 7.32 1.91 64.81 64.81 0 0 0 22.4 4.46h1.78a49 49 0 0 0 18.07-3.49 16.63 16.63 0 0 1 2.37-1H62q.68.22.68.78v.15q0 .65-1.87 1.36a36.64 36.64 0 0 1-7.34 2.46 54 54 0 0 1-13 1.54 69.48 69.48 0 0 1-26.92-5.82 14.48 14.48 0 0 0-3.93-.6H9.6q-4.73 0-7.19 3a4.28 4.28 0 0 0-.7 2.2 5.9 5.9 0 0 0 2.23 4.64A9.76 9.76 0 0 0 6 28.2a1.23 1.23 0 0 1 .3.8.94.94 0 0 1-.93.73 7.53 7.53 0 0 1-4.46-3.6A8.6 8.6 0 0 1 0 22.4q0-3.59 4.31-5.75a12.31 12.31 0 0 1 5.03-1.09z" fill="#537c8e"/><path d="M69.16 0q.7 0 1.1 1.25L70.14 1a20.55 20.55 0 0 1-1.5 5.93.12.12 0 0 0 0 .06h.2q1.66 0 8.55-2h.37q.92.08.92.83t-3.2 1.43a33.42 33.42 0 0 1-6.81 1.49q-.92 0-1.33 1.57a60.33 60.33 0 0 1-3.4 6.6A6 6 0 0 0 62.7 19v.18l.11.6a12.24 12.24 0 0 0 2.49 3.89 4.14 4.14 0 0 0 2.54.93H68a6.35 6.35 0 0 0 4-1.48 8.13 8.13 0 0 0 2.75-2.89 13.08 13.08 0 0 1 1.4-2.43 1 1 0 0 1 .51-.18h.08a.86.86 0 0 1 .8.88 18.15 18.15 0 0 1-2.31 4.08 12.58 12.58 0 0 1-2.75 2.32 8.5 8.5 0 0 1-4 1.21h-.82a5.26 5.26 0 0 1-4.64-2.66 10.07 10.07 0 0 1-2.29-5.07 2.11 2.11 0 0 1-.06-.6h-.14l.14.29v-1.3a.78.78 0 0 1 0-.22.41.41 0 0 1 0-.15q.05-1.12-.09-1.12l.14.29a20.36 20.36 0 0 1 1.64-5.79 1.3 1.3 0 0 0 0-.36v-.1c0 .07-.07.09-.22.06q-.9.05-1.18.1-.59-.05-1-.05h-1.39q-1.15-.27-1.15-.73v-.1q0-.31.82-.68L59 8l2.9-.15h.66q.65 0 1.4-1.87A15.56 15.56 0 0 0 65.2 3.8a2.2 2.2 0 0 0 .6-.88q2-2.87 3-2.87zm-6.62 15.88l-.14-.29v.55q0-.08-.15-.08A9.15 9.15 0 0 0 63.63 14q1-1.89 2.26-4.7v-.16-.09h-.24q-1.27.09-1.27.46-1.94 4.58-1.94 5.7-.04.67.1.67zm2.71-8.44s0-.06.14-.06q1.2 0 1.39-.51a43.09 43.09 0 0 0 1.49-4.63v.06h.1a16.34 16.34 0 0 0-3.12 5.14z" fill="#537c8e"/><path d="M76.52 12.66q2.65.32 2.65 2.51a6.76 6.76 0 0 1-1.68 3.72v-.18q1 1.08.84 1.08v-.24l.5.24s1.13-.45 3.28-1.35a30.1 30.1 0 0 1 4.21-1.06.92.92 0 0 1 .71 1 1.64 1.64 0 0 1-1.55.84 16.92 16.92 0 0 0-5.58 2.15l.75 2.4.13.7h.08l-.1-.22-.05.1q-.09.76.05.46-.76 2.91-1.96 3.65a5.39 5.39 0 0 1-3 1.3l-.5.24v-.05q.32-.15-.14-.09-.85-.11-.65 0v-.06a2.49 2.49 0 0 1-1.81-2.27q0-2.73 4.14-6.31c.16-.14.24-.25.24-.32v-.05a10.09 10.09 0 0 0-1.45-1.62 7.13 7.13 0 0 1-1.81-3.15c0-.26 0-.39.05-.39q0 .34-.05.24a4.09 4.09 0 0 1 .73-2.2 2.54 2.54 0 0 1 1.97-1.07zm-2 14.74v.38q.1.57.6.57a4.6 4.6 0 0 0 3.12-1.67 4.23 4.23 0 0 0 .64-2.47q-.28-1.8-.68-1.8a10 10 0 0 0-3 3 3.23 3.23 0 0 0-.72 1.99zm1.07-11.79v.11a3.24 3.24 0 0 0 1 1.94h-.22a5.15 5.15 0 0 0 1.17-2.59q0-.54-.93-.7-.73-.01-1.06 1.24z" fill="#537c8e"/><path d="M121 10.36q1.35 0 1.95 2.5a5.27 5.27 0 0 1 .05.73q0 2.54-3.16 4.55a12.23 12.23 0 0 1-3 1.21 21.18 21.18 0 0 1-3.15.56V20q.33-.19-.61-.09v.1l.29-.14h-1.15q.27 0 .27.24l-.5-.24h-.18q.27 0 .27.24l-.5-.24q.27 0 .27.24l-.5-.24h-1.62v.14L110 20l.22.1v.05l-.47-.24a20.94 20.94 0 0 1-2.38-.15v.05q-2.52-.36-7.94-1.33c.2 0 .29 0 .29.1l-1.38-.2-1-.14q.59 0 .59.11l-.6-.11h-.43c-.25 0-.37 0-.37-.05q.59 0 .59.09l-.92-.1v.2l-.47-.24-2.26-.05v.14l.29-.14h-1.2a10.38 10.38 0 0 0-4.07.59 8.69 8.69 0 0 1-2.32.59q-.71-.28-.71-.83v-.15q0-.76 3.31-1.53a26.44 26.44 0 0 1 3.54-.45v-.12l-.29.14h1q-.27 0-.27-.24l.5.24q-.27 0-.27-.24l.42.2.1-.05.1.05.1-.05.1.05.1-.05.09.05h.54v.05c-.39 0-.59 0-.59-.1l.7.1h.28q.55 0 1.95.06c-.39 0-.59 0-.59-.08q2 .18 1.73.08a6.19 6.19 0 0 0 1.22.28v-.05q4.08.61 6.53 1.11v-.05l.82.15v-.06a12.42 12.42 0 0 0 2.47.28s-.2.05-.59.05V18a12.85 12.85 0 0 0 1.58.19V18l.5.24h2.34l.7-.1V18l-.29.14h.46l.7-.1v.05a13.74 13.74 0 0 0 3.36-.84q3.29-1.56 3.29-3.73v-.15a4.84 4.84 0 0 0-.76-2.1v-.19q.21-.72.66-.72z" fill="#537c8e"/></symbol><symbol viewBox="0 0 1792 1792" id="send-o"><path d="M1764 11q33 24 27 64l-256 1536q-5 29-32 45-14 8-31 8-11 0-24-5l-527-215-298 327q-18 21-47 21-14 0-23-4-19-7-30-23.5t-11-36.5v-452L40 1083q-37-14-40-55-3-39 32-59L1696 9q35-21 68 2zm-342 1499l221-1323-1434 827 336 137 863-639-478 797z"/></symbol><symbol viewBox="0 0 1792 1792" id="twitter"><path d="M1684 408q-67 98-162 167 1 14 1 42 0 130-38 259.5T1369.5 1125 1185 1335.5t-258 146-323 54.5q-271 0-496-145 35 4 78 4 225 0 401-138-105-2-188-64.5T285 1033q33 5 61 5 43 0 85-11-112-23-185.5-111.5T172 710v-4q68 38 146 41-66-44-105-115t-39-154q0-88 44-163 121 149 294.5 238.5T884 653q-8-38-8-74 0-134 94.5-228.5T1199 256q140 0 236 102 109-21 205-78-37 115-142 178 93-10 186-50z"/></symbol><symbol viewBox="0 0 548.963 548.963" id="twitter-bird-logo"><path d="M548.963 99.682c-3.672 7.752-10.506 17.544-20.502 29.376s-22.338 22.236-37.027 31.212c.408 3.264.715 6.324.918 9.18.205 2.856.307 5.916.307 9.18 0 17.136-1.938 35.904-5.813 56.304s-9.896 41.106-18.053 62.118c-8.16 21.012-18.463 41.82-30.906 62.424-12.445 20.604-27.234 39.678-44.371 57.222-17.135 17.544-36.617 33.051-58.445 46.515-21.826 13.464-46.207 23.46-73.134 29.985-31.416 6.938-62.832 10.404-94.248 10.404-13.464 0-27.438-.714-41.922-2.142-14.484-1.431-28.968-4.08-43.452-7.956s-28.764-9.078-42.84-15.606C25.398 471.373 12.24 463.007 0 452.806c31.824 4.488 61.914 1.938 90.27-7.65s54.162-23.151 77.418-40.695c-5.304 0-12.342-.513-21.114-1.53-8.772-1.021-18.156-4.08-28.152-9.18-9.996-5.103-20.094-12.954-30.294-23.563-10.2-10.605-19.176-25.5-26.928-44.676 2.448.813 5.814 1.326 10.098 1.53s8.874.102 13.77-.309 9.69-.918 14.382-1.527c4.692-.612 8.874-1.326 12.546-2.145-21.216-6.527-37.842-15.198-49.878-26.01-12.036-10.813-20.91-21.93-26.622-33.354s-9.282-22.235-10.71-32.435-2.142-18.156-2.142-23.868c5.304 3.264 13.056 6.732 23.256 10.404s19.38 5.304 27.54 4.896c-16.728-13.872-28.866-27.642-36.414-41.31s-12.036-26.928-13.464-39.78c-1.428-12.852-.714-25.398 2.142-37.638s6.732-24.072 11.628-35.496c22.44 25.296 44.778 45.798 67.014 61.506s43.452 27.846 63.648 36.414 39.066 14.28 56.61 17.136 32.844 4.284 45.9 4.284c-2.448-16.32-2.551-31.824-.309-46.512 2.244-14.688 6.939-28.152 14.076-40.392 7.143-12.24 16.627-22.746 28.459-31.518 11.832-8.772 25.908-15.402 42.229-19.89 19.99-5.712 39.168-5.508 57.525.612 18.361 6.12 34.068 16.729 47.125 31.824 5.711-.408 14.688-2.244 26.93-5.508 12.238-3.264 27.541-10.404 45.898-21.42-1.225 4.08-3.162 9.078-5.813 14.994-2.652 5.916-6.02 11.934-10.1 18.054-4.08 6.12-8.977 12.036-14.688 17.748-5.713 5.712-12.24 10.404-19.584 14.076a974.04 974.04 0 0 0 20.193-4.284c6.119-1.632 13.262-3.774 21.422-6.426s16.528-5.814 25.096-9.486z" fill="#010002"/></symbol><symbol viewBox="0 0 1792 1792" id="wordpress"><path d="M127 896q0-163 67-313l367 1005q-196-95-315-281T127 896zm1288-39q0 19-2.5 38.5t-10 49.5-11.5 44-17.5 59-17.5 58l-76 256-278-826q46-3 88-8 19-2 26-18.5t-2.5-31T1085 465l-205 10q-75-1-202-10-12-1-20.5 5T646 485t-1.5 18.5 9 16.5 19.5 8l80 8 120 328-168 504-280-832q46-3 88-8 19-2 26-18.5t-2.5-31T508 465l-205 10q-7 0-23-.5t-26-.5q105-160 274.5-253.5T896 127q147 0 280.5 53T1415 329h-10q-55 0-92 40.5t-37 95.5q0 12 2 24t4 21.5 8 23 9 21 12 22.5 12.5 21 14.5 24 14 23q63 107 63 212zM909 963l237 647q1 6 5 11-126 44-255 44-112 0-217-32zm661-436q95 174 95 369 0 209-104 385.5T1282 1560l235-678q59-169 59-276 0-42-6-79zM896 0q182 0 348 71t286 191 191 286 71 348-71 348-191 286-286 191-348 71-348-71-286-191-191-286T0 896t71-348 191-286T548 71 896 0zm0 1751q173 0 331.5-68t273-182.5 182.5-273 68-331.5-68-331.5-182.5-273-273-182.5T896 41t-331.5 68-273 182.5-182.5 273T41 896t68 331.5 182.5 273 273 182.5 331.5 68z"/></symbol><symbol viewBox="0 0 535.5 535.5" id="wordpress-logo-button"><path d="M267.445 535.5c-36.72 0-71.4-7.038-104.04-21.114-32.64-14.073-60.996-33.252-85.068-57.525-24.072-24.276-43.146-52.734-57.222-85.374C7.039 338.844.001 304.166.001 267.446s7.038-71.4 21.114-104.04 33.15-60.996 57.222-85.068 52.428-43.146 85.068-57.222S230.725 0 267.445 0s71.4 7.038 104.041 21.114c32.639 14.076 61.098 33.15 85.373 57.222 24.277 24.072 43.453 52.428 57.529 85.068 14.072 32.64 21.111 67.32 21.111 104.04s-7.039 71.397-21.111 104.04c-14.076 32.64-33.252 61.098-57.529 85.374-24.275 24.273-52.734 43.452-85.373 57.525-32.641 14.079-67.321 21.117-104.041 21.117zm0-516.528c-34.272 0-66.504 6.528-96.696 19.584S114.139 69.36 91.495 91.8s-40.494 48.756-53.55 78.948-19.584 62.424-19.584 96.696c0 34.271 6.528 66.504 19.584 96.696 13.056 30.189 30.906 56.607 53.55 79.254 22.644 22.644 49.062 40.491 79.254 53.55 30.192 13.056 62.424 19.584 96.696 19.584 34.273 0 66.503-6.528 96.697-19.584 30.189-13.059 56.607-30.906 79.254-53.55 22.643-22.646 40.494-49.063 53.549-79.254 13.057-30.192 19.584-62.427 19.584-96.696 0-34.272-6.527-66.504-19.584-96.696-13.055-30.192-30.906-56.508-53.549-78.948-22.646-22.44-49.063-40.188-79.254-53.244-30.194-13.056-62.424-19.584-96.697-19.584zm-64.26 467.568c10.2 2.856 20.706 5.103 31.518 6.732s21.726 2.445 32.742 2.445c25.705 0 51-4.485 75.888-13.464l-71.604-192.777-68.544 197.064zm-52.632-348.228c2.448 0 4.692.816 6.732 2.448s3.264 3.672 3.672 6.12c.816 5.712-2.04 8.976-8.568 9.792-4.488.816-8.772 1.326-12.852 1.53s-8.364.51-12.852.918l83.232 245.412 50.184-148.104-36.108-96.696c-7.752-.816-13.77-1.53-18.054-2.142s-6.63-.918-7.038-.918c-2.448-.408-4.488-1.632-6.12-3.672s-2.04-4.284-1.224-6.732c.408-2.448 1.632-4.488 3.672-6.12s4.284-2.04 6.732-1.224l8.568 1.224 24.174 1.836c16.116 1.224 28.662 1.224 37.638 0 8.979-1.224 25.5-2.448 49.572-3.672 2.447 0 4.691.816 6.732 2.448 2.039 1.632 3.264 3.672 3.672 6.12.813 5.712-2.041 8.976-8.568 9.792-4.486.816-8.771 1.326-12.852 1.53-4.082.204-8.16.51-12.24.918l82.619 245.412a13920.837 13920.837 0 0 0 16.219-55.08c4.283-14.688 7.854-26.724 10.709-36.108 3.268-10.605 5.713-19.176 7.344-25.702 4.488-14.688 6.225-28.866 5.203-42.536-1.02-13.668-4.387-25.194-10.098-34.578-2.449-4.896-6.02-11.016-10.711-18.36s-8.873-15.198-12.545-23.562c-3.672-8.364-6.121-16.728-7.344-25.092-1.227-8.364 0-16.014 3.672-22.95 5.303-9.384 11.219-15.402 17.748-18.054 6.525-2.652 13.26-3.57 20.193-2.754-20.398-18.768-43.758-33.456-70.072-44.063-26.316-10.608-54.365-15.912-84.15-15.912-39.984 0-76.602 9.282-109.854 27.846s-60.078 43.35-80.478 74.358c9.792.408 20.808.408 33.048 0 12.241-.409 25.705-1.633 40.393-3.673zM39.781 267.444c0 22.438 3.06 44.062 9.18 64.872 6.12 20.808 14.892 40.086 26.316 57.834a233.433 233.433 0 0 0 40.698 47.733c15.708 14.076 33.15 25.604 52.326 34.578L58.753 176.256c-12.648 28.968-18.972 59.364-18.972 91.188zm455.327 0c0-38.352-8.771-73.848-26.316-106.488.816 4.488 1.227 8.874 1.227 13.158s-.203 8.67-.611 13.158c-2.449 22.032-6.732 42.024-12.852 59.976a6794.52 6794.52 0 0 1-17.748 51.408c-2.449 6.936-6.324 18.359-11.629 34.271a3043.76 3043.76 0 0 1-17.139 49.88 5407.326 5407.326 0 0 0-17.135 49.266c-5.305 15.504-9.18 26.52-11.629 33.048a214.19 214.19 0 0 0 46.512-35.802c13.873-14.076 25.809-29.58 35.805-46.513 9.994-16.934 17.748-35.09 23.256-54.47 5.506-19.378 8.259-39.676 8.259-60.892z" fill="#010002"/></symbol></svg>